<svg xmlns="http://www.w3.org/2000/svg" xmlns:xlink="http://www.w3.org/1999/xlink" width="340.333" height="340.337" viewBox="0 0 340.333 340.337"><defs><style>.a{fill:url(#a);}.b{filter:url(#b);}</style><linearGradient id="a" x1="1.201" y1="0.713" x2="0.041" y2="0.574" gradientUnits="objectBoundingBox"><stop offset="0" stop-color="#5292e9"/><stop offset="1" stop-color="#5927e2"/></linearGradient><filter id="b" x="0" y="0" width="340.333" height="340.337" filterUnits="userSpaceOnUse"><feOffset dy="39" input="SourceAlpha"/><feGaussianBlur stdDeviation="31" result="c"/><feFlood flood-color="#535353" flood-opacity="0.361"/><feComposite operator="in" in2="c"/><feComposite in="SourceGraphic"/></filter></defs><g class="b" transform="matrix(1, 0, 0, 1, 0, 0)"><path class="a" d="M66.861,49.046A77.17,77.17,0,0,0-10.308-28.122,77.166,77.166,0,0,0-87.472,49.046a77.166,77.166,0,0,0,77.164,77.168c.272,0,.544,0,.812-.008v.008H63.857a3.009,3.009,0,0,0,3-3.008V49.458h0C66.857,49.322,66.861,49.182,66.861,49.046Z" transform="translate(180.47 82.12)"/></g></svg>