<svg xmlns="http://www.w3.org/2000/svg" width="257.665" height="101.948" viewBox="0 0 257.665 101.948"><defs><style>.a{fill:#ccf3ff;}</style></defs><path class="a" d="M264.135,409.155c69.208.942,141.48,7.952,210.689,8.9,2.323.031,9.642-2.233-2.972-10.368-10.685-6.889-44.455-.692-44.455-.692s7.861-3.152,7.825-7.218-3.119-7.642-6.82-9.329-7.916-1.809-11.977-1.578a76.328,76.328,0,0,0-24.124,5.4,7,7,0,1,0-8.113-11.358c5.187-7.026,13.206-38.156-11.439-51.875-30.891-17.2-54.351-3.046-59.356,7.3-2.54-10.157-14.2-17.851-21.873-19.756-17.508-4.348-28.913-3.06-45.258,4.575-5.783,2.7-13.525,11.923-17.369,17.017-6.021,7.979-6.96,18.59-7.29,28.579q-.376,11.247-.1,22.5" transform="translate(-221.385 -316.103)"/></svg>