<svg xmlns="http://www.w3.org/2000/svg" width="277.053" height="101.948" viewBox="0 0 277.053 101.948"><defs><style>.a{fill:#ccf3ff;}</style></defs><path class="a" d="M449.178,415.223q-111.624,1.413-223.249,2.828c-2.5.031-10.368-2.233,3.2-10.368,11.489-6.889,47.8-.692,47.8-.692s-8.453-3.152-8.414-7.218,3.354-7.642,7.334-9.329,8.512-1.809,12.879-1.578a87.325,87.325,0,0,1,25.939,5.4,6.979,6.979,0,0,1-2.181-10.026c2.39-3.111,7.733-3.764,10.9-1.332-5.577-7.026-14.2-38.156,12.3-51.875,33.215-17.2,58.441-3.046,63.823,7.3,2.731-10.157,15.263-17.851,23.519-19.756,18.826-4.348,31.088-3.06,48.664,4.575,6.218,2.7,14.543,11.923,18.676,17.017,6.474,7.979,7.483,18.59,7.839,28.579q.4,11.247.109,22.5" transform="translate(-221.385 -316.103)"/></svg>