<svg xmlns="http://www.w3.org/2000/svg" xmlns:xlink="http://www.w3.org/1999/xlink" width="128.07" height="138.006" viewBox="0 0 128.07 138.006"><defs><style>.a{fill:#f2f2f2;}.b{fill:#e6e6e6;}.c{fill:#ccc;}.d{fill:#999;}.e{fill:#b3b3b3;}.f{fill:#37bffd;}.g{fill:url(#a);}.h{fill:url(#b);}</style><linearGradient id="a" y1="0.5" x2="1" y2="0.5" gradientUnits="objectBoundingBox"><stop offset="0.386" stop-color="#7047ff"/><stop offset="1" stop-color="#2e76ea"/></linearGradient><linearGradient id="b" x1="0" y1="0.5" x2="1" y2="0.5" xlink:href="#a"/></defs><path class="a" d="M134.84,489.825h-76.9A5.179,5.179,0,0,0,52.767,495V617.816a5.182,5.182,0,0,0,5.176,5.176h76.9a13.849,13.849,0,0,0,13.834-13.834v-105.5A13.849,13.849,0,0,0,134.84,489.825Z" transform="translate(-45.64 -489.825)"/><path class="b" d="M79.906,489.825H72.779a13.849,13.849,0,0,1,13.834,13.834v105.5a13.849,13.849,0,0,1-13.834,13.834h7.127A13.849,13.849,0,0,0,93.74,609.158v-105.5A13.849,13.849,0,0,0,79.906,489.825Z" transform="translate(9.294 -489.825)"/><path class="c" d="M70.612,527.35v9.175a1.467,1.467,0,0,0,1.468,1.464h51.176a1.467,1.467,0,0,0,1.468-1.464V527.35a4.8,4.8,0,0,0-4.8-4.8H75.413A4.8,4.8,0,0,0,70.612,527.35Z" transform="translate(3.346 -399.984)"/><path class="d" d="M88.361,522.553H82.11a4.8,4.8,0,0,1,4.8,4.8v10.64h4.782a1.467,1.467,0,0,0,1.468-1.464V527.35A4.8,4.8,0,0,0,88.361,522.553Z" transform="translate(34.908 -399.984)"/><path class="c" d="M109.861,506.781v5.213h-7.584l-.644-5.412a1.673,1.673,0,0,0-1.663-1.476H90a1.673,1.673,0,0,0-1.663,1.476l-.644,5.412H80.106v-5.213a1.673,1.673,0,0,0-1.674-1.674H73.264a1.674,1.674,0,0,0-1.667,1.828l1.614,17.508a3.118,3.118,0,0,0,3.1,2.831h37.335a3.118,3.118,0,0,0,3.1-2.831l1.614-17.508a1.675,1.675,0,0,0-1.67-1.828h-5.164A1.673,1.673,0,0,0,109.861,506.781Z" transform="translate(6.031 -447.875)"/><g transform="translate(80.017 57.232)"><path class="d" d="M73.9,506.781v5.213h4.445v-5.213a1.673,1.673,0,0,0-1.674-1.674H72.23A1.673,1.673,0,0,1,73.9,506.781Z" transform="translate(-72.23 -505.107)"/><path class="d" d="M79.644,506.583l.64,5.412h4.449l-.644-5.412a1.673,1.673,0,0,0-1.663-1.476H77.981A1.675,1.675,0,0,1,79.644,506.583Z" transform="translate(-56.443 -505.107)"/><path class="d" d="M89.132,505.107H84.682a1.674,1.674,0,0,1,1.667,1.828l-1.61,17.508a3.12,3.12,0,0,1-3.1,2.831h4.445a3.118,3.118,0,0,0,3.1-2.831L90.8,506.935A1.674,1.674,0,0,0,89.132,505.107Z" transform="translate(-46.415 -505.107)"/></g><path class="e" d="M108.77,547.338l-1.5-36.312H77.6l-1.5,36.312a3.585,3.585,0,0,0-3.584,3.588V554.2h39.836v-3.269A3.585,3.585,0,0,0,108.77,547.338Z" transform="translate(8.578 -431.627)"/><path class="d" d="M87.938,547.338l-1.5-36.312H80.107l1.5,36.312a3.588,3.588,0,0,1,3.588,3.588V554.2h6.329v-3.269A3.585,3.585,0,0,0,87.938,547.338Z" transform="translate(29.41 -431.627)"/><g transform="translate(0 21.328)"><path class="e" d="M64.324,495.52H55.706a4.843,4.843,0,0,0-4.842,4.842h0a4.84,4.84,0,0,0,4.842,4.839h8.617a4.839,4.839,0,0,0,4.839-4.839h0A4.84,4.84,0,0,0,64.324,495.52Z" transform="translate(-50.864 -495.52)"/><path class="e" d="M64.324,502.714H55.706a4.843,4.843,0,0,0-4.842,4.842h0a4.84,4.84,0,0,0,4.842,4.839h8.617a4.836,4.836,0,0,0,4.839-4.839h0A4.84,4.84,0,0,0,64.324,502.714Z" transform="translate(-50.864 -475.772)"/><path class="e" d="M64.324,509.908H55.706a4.843,4.843,0,0,0-4.842,4.842h0a4.84,4.84,0,0,0,4.842,4.839h8.617a4.836,4.836,0,0,0,4.839-4.839h0A4.84,4.84,0,0,0,64.324,509.908Z" transform="translate(-50.864 -456.024)"/><path class="e" d="M64.324,517.1H55.706a4.843,4.843,0,0,0-4.842,4.842h0a4.843,4.843,0,0,0,4.842,4.842h8.617a4.84,4.84,0,0,0,4.839-4.842h0A4.84,4.84,0,0,0,64.324,517.1Z" transform="translate(-50.864 -436.276)"/></g><path class="f" d="M69.2,511.826a8.852,8.852,0,1,1,8.853-8.85A8.859,8.859,0,0,1,69.2,511.826Zm0-13.658a4.809,4.809,0,1,0,4.809,4.809A4.814,4.814,0,0,0,69.2,498.168Z" transform="translate(-24.83 -478.027)"/><g transform="translate(33.132 40.312)"><path class="g" d="M90.772,554.649a2.054,2.054,0,0,1-.753-.146c-1.3-.52-2.6-1.116-3.854-1.76a2.022,2.022,0,1,1,1.858-3.591c1.135.584,2.314,1.123,3.5,1.6a2.022,2.022,0,0,1-.749,3.9ZM80.3,548.6a2.015,2.015,0,0,1-1.251-.435c-1.1-.872-2.176-1.805-3.195-2.779a2.021,2.021,0,1,1,2.794-2.921c.925.884,1.9,1.734,2.906,2.524A2.022,2.022,0,0,1,80.3,548.6Zm-8.325-8.76a2.027,2.027,0,0,1-1.652-.85c-.813-1.146-1.58-2.348-2.281-3.565a2.02,2.02,0,1,1,3.5-2.015c.637,1.1,1.337,2.195,2.079,3.24a2.021,2.021,0,0,1-.479,2.816A2,2,0,0,1,71.979,539.837Zm-5.516-10.748a2.023,2.023,0,0,1-1.914-1.367c-.453-1.333-.85-2.7-1.176-4.071a2.021,2.021,0,1,1,3.932-.936c.3,1.243.655,2.487,1.071,3.7a2.03,2.03,0,0,1-1.914,2.678ZM64.231,517.21a2.021,2.021,0,0,1-2.019-1.936c-.026-.629-.041-1.27-.041-1.9v-2.225a2.022,2.022,0,0,1,4.045,0v2.225c0,.573.011,1.157.037,1.73a2.022,2.022,0,0,1-1.936,2.1Zm-.037-12.13a2.02,2.02,0,0,1-2.022-2.019v-.449a2.022,2.022,0,0,1,4.045,0v.449A2.02,2.02,0,0,1,64.193,505.079Z" transform="translate(-52.958 -500.589)"/><path class="h" d="M61.734,512.913a2.021,2.021,0,0,1-1.352-3.524l9.213-8.28a2.019,2.019,0,0,1,2.7,0l9.217,8.28a2.022,2.022,0,0,1-2.7,3.007l-7.865-7.067L63.082,512.4A2,2,0,0,1,61.734,512.913Z" transform="translate(-59.711 -500.588)"/></g><g transform="translate(35.903 99.393)"><path class="c" d="M75.357,533.293a2.014,2.014,0,0,1-1.427-.592L61.043,519.815a2.022,2.022,0,0,1,2.861-2.857l12.883,12.887a2.021,2.021,0,0,1-1.431,3.449Z" transform="translate(-60.451 -516.365)"/><path class="c" d="M62.474,533.293a2.021,2.021,0,0,1-1.431-3.449L73.93,516.957a2.021,2.021,0,1,1,2.857,2.857L63.9,532.7A2.029,2.029,0,0,1,62.474,533.293Z" transform="translate(-60.451 -516.365)"/></g><path class="d" d="M73.575,520.078l-.1,2.415h28.549v-2.415Z" transform="translate(11.205 -406.779)"/></svg>