<svg xmlns="http://www.w3.org/2000/svg" xmlns:xlink="http://www.w3.org/1999/xlink" width="214.168" height="214.168" viewBox="0 0 214.168 214.168"><defs><style>.a{fill:url(#a);}.b{fill:#b0c4d8;}.c{fill:#99b4cd;}.d{fill:#c4d7e5;}.e{fill:#37bffd;}.f{fill:#4c9cd6;}.g{fill:#b0c9db;}.h{fill:#e2e7f0;}.i{fill:url(#b);}</style><linearGradient id="a" x1="0.5" y1="1" x2="0.5" gradientUnits="objectBoundingBox"><stop offset="0.386" stop-color="#7047ff"/><stop offset="1" stop-color="#2e76ea"/></linearGradient><linearGradient id="b" x1="0" y1="0.5" x2="1" y2="0.5" xlink:href="#a"/></defs><g transform="translate(0)"><path class="a" d="M219.076,357.123a17.245,17.245,0,0,1-17.035,17.035,17.7,17.7,0,0,1-12.658-5.353l-54.51-59.386a4.692,4.692,0,0,1,0-6.811l12.653-12.658a4.7,4.7,0,0,1,6.811,0l59.386,55a16.6,16.6,0,0,1,5.353,12.17Zm0,0" transform="translate(-4.908 -159.989)"/><path class="b" d="M155.51,300.954l-9.636,9.636L131.42,296.136l9.636-9.636Zm0,0" transform="translate(-14.479 -169.559)"/><path class="c" d="M148.434,303.514l2.435,2.435,4.87-4.87-14.605-14.6-9.735,9.735,7.306,7.3a6.5,6.5,0,0,1,9.729,0Zm0,0" transform="translate(-14.58 -169.66)"/><path class="d" d="M184.314,266.379a73.012,73.012,0,1,0,73.009,73.009,72.912,72.912,0,0,0-73.009-73.009Zm0,131.418a58.41,58.41,0,1,1,58.41-58.409,58.582,58.582,0,0,1-58.41,58.409Zm0,0" transform="translate(-111.299 -266.379)"/><path class="e" d="M230.636,327.3a58.412,58.412,0,1,1-58.41-58.409,58.409,58.409,0,0,1,58.41,58.409Zm0,0" transform="translate(-99.212 -254.292)"/><path class="f" d="M131.045,321.887a41.313,41.313,0,0,1,35.534-35.534h.488c8.276-.971,8.758-12.652.971-14.111a48.863,48.863,0,0,0-14.6-.488c-18.982,2.917-34.075,18.005-36.51,36.5a36.7,36.7,0,0,0,.488,14.6c1.465,8.276,13.146,7.305,14.117-.971-.488.488-.488,0-.488,0Zm0,0" transform="translate(-86.753 -242.06)"/><path class="f" d="M118.681,332.166a58.578,58.578,0,0,1,58.41-58.409c15.093,0,28.234,5.841,38.94,14.6a57.745,57.745,0,0,0-43.8-19.464,58.581,58.581,0,0,0-58.415,58.4,59.474,59.474,0,0,0,19.476,43.81c-8.764-10.712-14.605-23.852-14.605-38.94Zm0,0" transform="translate(-99.212 -254.287)"/><path class="g" d="M123.862,351.956a72.912,72.912,0,0,0,73.009-73.015,4.875,4.875,0,0,0-4.864,4.87,66.216,66.216,0,0,1-19.47,42.833,68.626,68.626,0,0,1-43.81,20.446,4.874,4.874,0,0,0-4.865,4.865Zm0,0" transform="translate(-50.847 -205.932)"/><path class="h" d="M184.314,266.379A72.912,72.912,0,0,0,111.3,339.388a4.879,4.879,0,0,0,4.87-4.865,65.874,65.874,0,0,1,18.005-41.375,71.489,71.489,0,0,1,45.269-21.9,4.875,4.875,0,0,0,4.87-4.865Zm0,0" transform="translate(-111.299 -266.379)"/><path class="i" d="M211.219,331.771l-2.918-2.429a17.021,17.021,0,0,1,3.894,10.706c0,6.329-7.788,8.758-12.17,4.382l-51.11-51.11a7.055,7.055,0,0,0-10.223,0l-4.864,4.871,53.057,56.945c2.918,2.923,6.811,5.359,10.705,5.841a17.039,17.039,0,0,0,18.982-18.982c0-3.894-2.429-7.3-5.353-10.223Zm0,0" transform="translate(-2.892 -147.295)"/><path class="e" d="M150.809,306.248a2.919,2.919,0,0,1-1.947-.488l-12.17-12.17a2.408,2.408,0,1,1,3.406-3.406l12.17,12.164a2.353,2.353,0,0,1,0,3.412c0,.488-.971.488-1.459.488Zm0,0" transform="translate(7.385 -155.354)"/></g></svg>