<svg xmlns="http://www.w3.org/2000/svg" xmlns:xlink="http://www.w3.org/1999/xlink" width="311.384" height="459.667" viewBox="0 0 311.384 459.667"><defs><style>.a{fill:#5b737a;opacity:0.4;}.b{fill:url(#a);}.c{fill:#bfb8ff;opacity:0.45;}.d{fill:url(#b);}.e{fill:#ccc;}.f{fill:#fff;}.g{fill:url(#c);}.h{opacity:0.15;}.i,.j,.k{fill:none;}.i{stroke:#0964af;stroke-width:3.122px;}.i,.k{stroke-linecap:round;stroke-linejoin:round;}.j{stroke:#5292e9;stroke-miterlimit:10;stroke-width:1.157px;}.k{stroke:#67d5ff;stroke-width:9px;}</style><linearGradient id="a" x1="0.651" y1="0.606" x2="0.659" y2="1.533" gradientUnits="objectBoundingBox"><stop offset="0" stop-color="#5927e2"/><stop offset="1" stop-color="#5292e9"/></linearGradient><linearGradient id="b" x1="0.5" x2="0.5" y2="1" gradientUnits="objectBoundingBox"><stop offset="0" stop-color="#eee"/><stop offset="1" stop-color="#cfcfcf"/></linearGradient><linearGradient id="c" x1="0.432" y1="-0.155" x2="0.429" y2="1.403" xlink:href="#a"/></defs><path class="a" d="M388.921,388.851c0,3.587-69.706,6.5-155.691,6.5s-155.693-2.909-155.693-6.5,69.706-6.5,155.693-6.5S388.921,385.262,388.921,388.851Z" transform="translate(-77.537 64.319)"/><path class="b" d="M184.553,96.949a15.625,15.625,0,0,0-15.624,15.624V132.6h31.249V112.573A15.625,15.625,0,0,0,184.553,96.949Zm0,24.592a8.766,8.766,0,1,1,8.766-8.766A8.767,8.767,0,0,1,184.553,121.541Z" transform="translate(-25.896 -96.949)"/><path class="c" d="M193.319,112.555a8.576,8.576,0,0,0-10.082-8.634,6.431,6.431,0,0,1,3.557-.851,8.767,8.767,0,0,1,8.766,8.766c0,4.39-2.241,6.769-5.623,7.637A9.586,9.586,0,0,0,193.319,112.555ZM173.7,130.379V110.355a15.248,15.248,0,0,1,6.57-13.017,15.62,15.62,0,0,0-11.342,15.015v20.025h31.249v-2Z" transform="translate(-25.896 -96.729)"/><rect class="d" width="294.503" height="416.397" rx="9.742" transform="translate(8.441 36.701)"/><rect class="e" width="260.364" height="383.734" transform="translate(25.51 53.032)"/><rect class="f" width="240.341" height="360.288" transform="translate(35.522 64.756)"/><path class="g" d="M305.94,128.771v15.651H116.491V128.771a10.752,10.752,0,0,1,.5-3.271,10.991,10.991,0,0,1,10.486-7.716H294.954A10.981,10.981,0,0,1,305.94,128.771Z" transform="translate(-55.526 -85.176)"/><path class="c" d="M305.94,140.509v3.913H116.491V133.09a48.732,48.732,0,0,1,.5-7.591,10.991,10.991,0,0,1,10.486-7.716h1.346a16.351,16.351,0,0,0-5.008,11.394v11.331Z" transform="translate(-55.526 -85.176)"/><g transform="translate(102.174 103.057)"><g class="h"><line class="i" x2="39.04"/><line class="i" x2="29.685" transform="translate(126.651 12.446)"/><line class="i" x2="113.787" transform="translate(0 12.446)"/><line class="i" x2="156.335" transform="translate(0 24.893)"/><line class="i" x2="49.692" transform="translate(106.644 37.34)"/><line class="i" x2="94.274" transform="translate(0 37.34)"/><line class="i" x2="104.484" transform="translate(51.852)"/></g></g><g transform="translate(102.174 192.531)"><g class="h"><line class="i" x2="39.04"/><line class="i" x2="29.685" transform="translate(126.651 12.446)"/><line class="i" x2="113.787" transform="translate(0 12.446)"/><line class="i" x2="156.335" transform="translate(0 24.893)"/><line class="i" x2="49.692" transform="translate(106.644 37.34)"/><line class="i" x2="94.274" transform="translate(0 37.34)"/><line class="i" x2="104.484" transform="translate(51.852)"/></g></g><g transform="translate(102.174 278.874)"><g class="h"><line class="i" x2="39.04"/><line class="i" x2="29.685" transform="translate(126.651 12.446)"/><line class="i" x2="113.787" transform="translate(0 12.446)"/><line class="i" x2="156.335" transform="translate(0 24.893)"/><line class="i" x2="49.692" transform="translate(106.644 37.34)"/><line class="i" x2="94.274" transform="translate(0 37.34)"/><line class="i" x2="104.484" transform="translate(51.852)"/></g></g><g transform="translate(102.174 366.782)"><g class="h"><line class="i" x2="39.04"/><line class="i" x2="29.685" transform="translate(126.651 12.447)"/><line class="i" x2="113.787" transform="translate(0 12.447)"/><line class="i" x2="156.335" transform="translate(0 24.893)"/><line class="i" x2="49.692" transform="translate(106.644 37.34)"/><line class="i" x2="94.274" transform="translate(0 37.34)"/><line class="i" x2="104.484" transform="translate(51.852)"/></g></g><g transform="translate(53.201 86.232)"><rect class="j" width="35.79" height="35.79" rx="2.102" transform="translate(0 13.07)"/><rect class="j" width="35.79" height="35.791" rx="2.102" transform="translate(0 102.252)"/><rect class="j" width="35.79" height="35.79" rx="2.102" transform="translate(0 191.436)"/><rect class="j" width="35.79" height="35.79" rx="2.102" transform="translate(0 280.618)"/><path class="k" d="M114.345,176.711,127.835,193l25.957-40.956" transform="translate(-109.94 -152.047)"/><path class="k" d="M114.345,233.221l13.491,16.292,25.957-40.956" transform="translate(-109.94 -120.116)"/></g></svg>