<svg xmlns="http://www.w3.org/2000/svg" xmlns:xlink="http://www.w3.org/1999/xlink" width="70.718" height="97.415" viewBox="0 0 70.718 97.415"><defs><style>.a{fill:none;stroke:#67d5ff;stroke-linecap:round;stroke-linejoin:round;stroke-width:6px;}.b{filter:url(#c);}.c{filter:url(#a);}</style><filter id="a" x="8.276" y="0" width="54.2" height="97.415" filterUnits="userSpaceOnUse"><feOffset dy="3" input="SourceAlpha"/><feGaussianBlur stdDeviation="3" result="b"/><feFlood flood-opacity="0.302"/><feComposite operator="in" in2="b"/><feComposite in="SourceGraphic"/></filter><filter id="c" x="0" y="13.348" width="70.718" height="70.718" filterUnits="userSpaceOnUse"><feOffset dy="3" input="SourceAlpha"/><feGaussianBlur stdDeviation="3" result="d"/><feFlood flood-opacity="0.302"/><feComposite operator="in" in2="d"/><feComposite in="SourceGraphic"/></filter></defs><g transform="translate(7 8)"><path class="a" d="M12,9V19.011l5.006,5.006" transform="translate(16.359 18.696)"/><g class="c" transform="matrix(1, 0, 0, 1, -7, -8)"><path class="a" d="M37.613,55.56,36.445,68.341a6.673,6.673,0,0,1-6.674,6.073H15.322a6.673,6.673,0,0,1-6.674-6.073L7.48,55.56m.033-35.706L8.681,7.073A6.674,6.674,0,0,1,15.322,1H29.838a6.673,6.673,0,0,1,6.674,6.073L37.68,19.854" transform="translate(12.8 8)"/></g><g class="b" transform="matrix(1, 0, 0, 1, -7, -8)"><circle class="a" cx="23.359" cy="23.359" r="23.359" transform="translate(12 22.35)"/></g></g></svg>