<svg xmlns="http://www.w3.org/2000/svg" xmlns:xlink="http://www.w3.org/1999/xlink" width="96.901" height="157.396" viewBox="0 0 96.901 157.396"><defs><style>.a{fill:none;}.b{clip-path:url(#a);}.c{fill:#ccc;}.d{fill:#e6e6e6;}.e{fill:#ebeef2;}.f{fill:#b3b3b3;}.g{fill:#f2f2f2;}.h{fill:url(#b);}.i{fill:#fff;}.j{fill:#37bffd;}</style><clipPath id="a"><rect class="a" width="96.901" height="157.396"/></clipPath><linearGradient id="b" y1="0.5" x2="1" y2="0.5" gradientUnits="objectBoundingBox"><stop offset="0.386" stop-color="#7047ff"/><stop offset="1" stop-color="#2e76ea"/></linearGradient></defs><g transform="translate(-57.172 -414.932)"><g transform="translate(57.172 414.932)"><g class="b"><path class="c" d="M90.778,433.912H67.59a2.3,2.3,0,0,1-2.3-2.3,13.894,13.894,0,1,1,27.788,0,2.3,2.3,0,0,1-2.3,2.3Zm-20.6-4.6h18.02a9.3,9.3,0,0,0-18.02,0Zm0,0" transform="translate(-30.612 -405.81)"/><path class="d" d="M97.445,438.455a2.318,2.318,0,0,1-1.085-.269l-35.434-18.9a2.3,2.3,0,1,1,2.165-4.053l34.353,18.319L131.8,415.232a2.3,2.3,0,1,1,2.161,4.053l-35.434,18.9a2.3,2.3,0,0,1-1.081.269Zm0,0" transform="translate(-48.87 -414.838)"/></g></g><path class="e" d="M144.362,420.435H66.725a9.5,9.5,0,0,0-9.491,9.491V544.467a9.5,9.5,0,0,0,9.491,9.491h77.638a9.5,9.5,0,0,0,9.491-9.491V429.926a9.5,9.5,0,0,0-9.491-9.491Zm0,0" transform="translate(0.201 18.002)"/><path class="f" d="M83.371,420.435H75.879a9.5,9.5,0,0,1,9.491,9.491V544.467a9.5,9.5,0,0,1-9.491,9.491h7.492a9.5,9.5,0,0,0,9.491-9.491V429.926a9.5,9.5,0,0,0-9.491-9.491Zm0,0" transform="translate(61.193 18.002)"/><path class="g" d="M144.362,420.435H66.725a9.5,9.5,0,0,0-9.491,9.491v51.81h96.619v-51.81a9.5,9.5,0,0,0-9.491-9.491Zm0,0" transform="translate(0.201 18.002)"/><path class="d" d="M83.371,420.435H75.879a9.5,9.5,0,0,1,9.491,9.491v51.81h7.492v-51.81a9.5,9.5,0,0,0-9.491-9.491Zm0,0" transform="translate(61.193 18.002)"/><path class="h" d="M118.011,453.364A28.013,28.013,0,1,1,90,425.353a28,28,0,0,1,28.011,28.011Zm0,0" transform="translate(15.746 34.09)"/><path class="i" d="M77.23,427.2A11.338,11.338,0,0,0,65.89,438.54v5.471a11.338,11.338,0,0,0,22.676,0V438.54A11.337,11.337,0,0,0,77.23,427.2Zm0,0" transform="translate(28.517 40.145)"/><path class="j" d="M96.3,444.958a28.042,28.042,0,0,1-31.432,0,11.271,11.271,0,0,1,7.616-9.358l0,0c.141-.047.278-.09.419-.132l.077-.026.363-.094c.141-.034.286-.068.427-.094l.026-.009c.141-.026.286-.056.431-.077s.265-.043.4-.06l.068-.009c.145-.017.29-.034.436-.047.12-.009.235-.017.35-.021l.171,0c.137-.008.273-.008.41-.008h9.055c.137,0,.273,0,.406.008l.171,0c.115,0,.235.013.35.021.15.013.295.03.44.047l.064.009c.137.017.273.034.4.06.145.021.29.051.436.077l.021.009c.145.026.29.06.427.094l.363.094.077.026c.141.043.282.085.419.132l0,0a11.271,11.271,0,0,1,7.616,9.358Zm0,0" transform="translate(25.164 65.693)"/><path class="i" d="M74.754,448.314l8.1-12.715a11.268,11.268,0,0,0-3.579-.585H70.226a11.268,11.268,0,0,0-3.579.585Zm0,0" transform="translate(30.993 65.69)"/><path class="j" d="M84.606,429.938h0l-.064-.056c-.085-.073-.175-.145-.265-.214l-.12-.1c-.081-.064-.167-.124-.248-.184l-.15-.107c-.077-.051-.149-.107-.231-.158l-.171-.115c-.068-.043-.141-.09-.214-.132l-.2-.12-.179-.1c-.081-.047-.158-.09-.239-.132l-.128-.064A11.332,11.332,0,0,0,65.89,438.544v1.046a13.527,13.527,0,0,0,15.5-3.323,9.8,9.8,0,0,0,7.171,4.416v-2.14a11.311,11.311,0,0,0-3.959-8.607Zm0,0" transform="translate(28.517 40.145)"/><path class="c" d="M116.792,441.219H64.145a2.3,2.3,0,0,0-2.3,2.3v8.777a2.3,2.3,0,0,0,2.3,2.3h52.647a2.3,2.3,0,0,0,2.3-2.3v-8.777a2.3,2.3,0,0,0-2.3-2.3Zm0,0" transform="translate(15.278 85.991)"/><path class="c" d="M116.792,450.9H64.145a2.3,2.3,0,1,1,0-4.6h52.647a2.3,2.3,0,1,1,0,4.6Zm0,0" transform="translate(15.278 102.619)"/><path class="c" d="M89.048,453.132H67.82a2.3,2.3,0,0,1,0-4.6H89.048a2.3,2.3,0,0,1,0,4.6Zm0,0" transform="translate(27.313 109.913)"/><path class="c" d="M74.238,418.207l-5.2,2.759a9.322,9.322,0,0,1,5.864,4.263l4.075-2.131a14,14,0,0,0-4.737-4.891Zm0,0" transform="translate(38.808 10.714)"/></g></svg>