<svg xmlns="http://www.w3.org/2000/svg" xmlns:xlink="http://www.w3.org/1999/xlink" width="6295.444" height="1736.122" viewBox="0 0 6295.444 1736.122"><defs><style>.a{fill:none;}.b{clip-path:url(#a);}.c{fill:url(#b);}.d{opacity:0.18;fill:url(#c);}.e{opacity:0.19;fill:url(#d);}.f{opacity:0.09;fill:url(#e);}</style><clipPath id="a"><rect class="a" width="1736.122" height="6295.444" transform="translate(0)"/></clipPath><linearGradient id="b" x1="0.373" y1="0.546" x2="0.416" y2="0.05" gradientUnits="objectBoundingBox"><stop offset="0" stop-color="#1675d5"/><stop offset="1" stop-color="#764eff"/></linearGradient><linearGradient id="c" x1="0.53" y1="0.289" x2="0.138" y2="0.291" gradientUnits="objectBoundingBox"><stop offset="0" stop-color="#50d8ee"/><stop offset="1" stop-color="#6356f7"/></linearGradient><linearGradient id="d" x1="0.5" x2="0.5" y2="1" gradientUnits="objectBoundingBox"><stop offset="0" stop-color="#50d8ee"/><stop offset="0.954" stop-color="#096ccf"/><stop offset="1" stop-color="#096ccf"/></linearGradient><linearGradient id="e" x1="0.409" y1="0.063" x2="0.837" y2="0.698" gradientUnits="objectBoundingBox"><stop offset="0" stop-color="#50d8ee"/><stop offset="1" stop-color="#8c6cf9"/></linearGradient></defs><g class="b" transform="translate(0 1736.122) rotate(-90)"><rect class="c" width="1762.932" height="7092.092" transform="translate(-27.096 3.871)"/><path class="d" d="M437.021,0S1195.176,392.791,929.8,1172.76,573.955,2693.422,1086.613,3383.609s102.529,830.471,102.529,830.471L91.457,4169.189S-11.08,538.685.988,488.182,437.021,0,437.021,0Z" transform="translate(229.514 -504.295)"/><path class="e" d="M672.4,0s1166.5,652.135,758.191,1947.087-547.5,2524.695,241.273,3670.586,157.754,1378.8,157.754,1378.8l-1688.9-74.53S-17.049,894.356,1.521,810.51C20.07,726.665,672.4,0,672.4,0Z" transform="translate(-539.239 4175.447)"/><path class="f" d="M876.866,0S2181.871,1960.832,1892.041,3110.486,612.49,4319.322,807.8,4887.114c3.109,7.1,6.207,14.13,9.6,21.726C1435.233,6295.709,1999.957,5251.6,1964.968,6371c-35.159,1125.031-1456.212,121.129-1456.212,121.129S.028,2543.479,0,2486.151,876.866,0,876.866,0Z" transform="matrix(1, -0.017, 0.017, 1, -998.496, 2642.493)"/><rect class="a" width="1216.122" height="6295.444" transform="translate(243.86 -158.702)"/><rect class="a" width="1216.122" height="6295.444" transform="translate(-27.096 1203.817)"/><rect class="a" width="1216.122" height="6295.444" transform="translate(-27.096 4176.585)"/></g></svg>