<svg xmlns="http://www.w3.org/2000/svg" xmlns:xlink="http://www.w3.org/1999/xlink" width="138.006" height="135.628" viewBox="0 0 138.006 135.628"><defs><style>.a{fill:#ccc;}.b{fill:#9c9c9c;}.c{fill:#f2f2f2;}.d{fill:url(#a);}.e{fill:#b3b3b3;}.f{fill:#37bffd;}</style><linearGradient id="a" y1="0.5" x2="1" y2="0.5" gradientUnits="objectBoundingBox"><stop offset="0.386" stop-color="#7047ff"/><stop offset="1" stop-color="#2e76ea"/></linearGradient></defs><path class="a" d="M203.94,546.954H156.351a13.347,13.347,0,0,1,5.947-11.1l2.4-1.6a13.355,13.355,0,0,0,5.928-11.1V516.02h19.036v7.138a13.349,13.349,0,0,0,5.947,11.1l2.4,1.6A13.349,13.349,0,0,1,203.94,546.954Z" transform="translate(-113.522 -411.327)"/><path class="b" d="M160.163,516.656H179.2v7.138H160.163Z" transform="translate(-103.058 -409.581)"/><path class="c" d="M149.671,488.065h128.49a4.76,4.76,0,0,1,4.76,4.76v99.933a4.76,4.76,0,0,1-4.76,4.76H149.671a4.759,4.759,0,0,1-4.756-4.76V492.825A4.759,4.759,0,0,1,149.671,488.065Z" transform="translate(-144.915 -488.065)"/><path class="a" d="M144.915,513.479H282.921V523a4.76,4.76,0,0,1-4.76,4.76H149.671a4.759,4.759,0,0,1-4.756-4.76Z" transform="translate(-144.915 -418.302)"/><path class="d" d="M209.121,529.975a30.931,30.931,0,1,1-37.241-37.241l16.654,1.551Z" transform="translate(-136.189 -475.248)"/><path class="e" d="M167.152,505.855h9.516v14.276h-9.516Z" transform="translate(-83.873 -439.23)"/><path class="a" d="M169.693,500.772h9.52v33.312h-9.52Z" transform="translate(-76.898 -453.183)"/><path class="e" d="M172.235,503.313h9.516v23.8h-9.516Z" transform="translate(-69.92 -446.208)"/><path class="a" d="M174.776,504.584h9.52V523.62h-9.52Z" transform="translate(-62.945 -442.719)"/><path class="a" d="M164.611,509.031h54.727v4.76H164.611Z" transform="translate(-90.848 -430.512)"/><g transform="translate(99.933 9.516)"><path class="a" d="M171.6,490.606h4.76v4.76H171.6Z" transform="translate(-171.599 -490.606)"/><path class="a" d="M174.141,490.606h4.76v4.76h-4.76Z" transform="translate(-164.621 -490.606)"/><path class="a" d="M176.682,490.606h4.76v4.76h-4.76Z" transform="translate(-157.646 -490.606)"/><path class="a" d="M174.141,493.148h14.276V497.9H174.141Z" transform="translate(-164.621 -483.628)"/></g><path class="a" d="M170.329,497.6h4.756v4.76h-4.756Z" transform="translate(-75.152 -461.905)"/><path class="a" d="M175.412,500.772h4.756v4.76h-4.756Z" transform="translate(-61.199 -453.183)"/><path class="a" d="M175.238,509.642h-11.9v-4.76h10.426l6.468-12.958a2.381,2.381,0,0,1,2.142-1.318h7.138v4.76h-5.67l-6.468,12.962A2.378,2.378,0,0,1,175.238,509.642Z" transform="translate(-94.337 -481.09)"/><path class="a" d="M164.611,497.6h16.654v4.76H164.611Z" transform="translate(-90.848 -461.905)"/><path class="f" d="M196.562,534.075a35.716,35.716,0,0,0-42.117-42.117v42.117Z" transform="translate(-118.754 -479.348)"/></svg>