<svg xmlns="http://www.w3.org/2000/svg" xmlns:xlink="http://www.w3.org/1999/xlink" width="161.038" height="146.061" viewBox="0 0 161.038 146.061"><defs><style>.a{fill:#ccc;}.b{fill:#f2f2f2;}.c{fill:#b3b3b3;}.d{fill:url(#a);}.e{fill:#37bffd;}</style><linearGradient id="a" y1="0.5" x2="1" y2="0.5" gradientUnits="objectBoundingBox"><stop offset="0.386" stop-color="#7047ff"/><stop offset="1" stop-color="#2e76ea"/></linearGradient></defs><g transform="translate(12.658 15.294)"><path class="a" d="M269.189,512.245a2.34,2.34,0,0,1-1.213-.337L238.24,494.217a2.413,2.413,0,0,1-.839-3.292,2.385,2.385,0,0,1,3.273-.843l29.732,17.7a2.4,2.4,0,0,1-1.217,4.468Z" transform="translate(-234.491 -489.748)"/><path class="a" d="M271.078,499.277H238.769a2.4,2.4,0,0,1,0-4.8h32.309a2.4,2.4,0,0,1,0,4.8Z" transform="translate(-236.38 -476.78)"/></g><path class="b" d="M340.787,583.938l-42.379-62.887,16.3-23.661a7.475,7.475,0,0,0-6.112-11.726H270.174a7.475,7.475,0,0,0-6.112,11.726l16.295,23.661-42.376,62.887A29.194,29.194,0,0,0,233,600.256h0a29.018,29.018,0,0,0,28.942,29.1h54.884a29.018,29.018,0,0,0,28.942-29.1h0A29.194,29.194,0,0,0,340.787,583.938Z" transform="translate(-233 -485.664)"/><path class="a" d="M297.261,583.938l-42.379-62.887,16.3-23.661a7.475,7.475,0,0,0-6.112-11.726h-6.962c5.442,0,8.644,6.771,5.546,11.726l-14.8,23.661,38.473,62.887a31.338,31.338,0,0,1,4.524,16.317c0,16.07-11.767,29.1-26.275,29.1H273.3a29.124,29.124,0,0,0,23.961-45.413Z" transform="translate(-189.474 -485.664)"/><path class="c" d="M269.3,499.277H246.695a2.4,2.4,0,0,1,0-4.8H269.3a2.4,2.4,0,0,1,0,4.8Z" transform="translate(-201.956 -461.486)"/><path class="b" d="M293.428,504.584a37.6,37.6,0,1,0,37.4,37.6A37.544,37.544,0,0,0,293.428,504.584Z" transform="translate(-169.792 -433.727)"/><path class="a" d="M305.369,506.224a37.624,37.624,0,0,1-25.781,64.816,37.041,37.041,0,0,1-20.459-6.138,37.346,37.346,0,0,0,63.183-27.219A37.648,37.648,0,0,0,305.369,506.224Z" transform="translate(-161.274 -429.225)"/><ellipse class="d" cx="25.216" cy="25.35" rx="25.216" ry="25.35" transform="translate(98.419 83.108)"/><path class="e" d="M277.212,525.671H270.95a3.174,3.174,0,0,1,0-6.348h9.183a2.371,2.371,0,0,0,0-4.741H276.44v-2.475a2.359,2.359,0,1,0-4.719,0v2.475h-.771a7.917,7.917,0,0,0,0,15.834h6.262a3.174,3.174,0,0,1,0,6.348h-9.183a2.371,2.371,0,0,0,0,4.741h3.693v2.476a2.359,2.359,0,1,0,4.719,0v-2.476h.771a7.917,7.917,0,0,0,0-15.834Z" transform="translate(-150.445 -419.585)"/><g transform="translate(100.773 19.898)"><path class="a" d="M275.09,499.455l-5.674-4.565-.019-.011a2.407,2.407,0,0,0-.315-.21l-.008,0a2.052,2.052,0,0,0-.333-.15l-.049-.019a2.469,2.469,0,0,0-.337-.086l-.06-.007a2.1,2.1,0,0,0-.708,0l-.06.007a2.467,2.467,0,0,0-.337.086l-.049.019a2.051,2.051,0,0,0-.333.15l-.008,0a2.4,2.4,0,0,0-.315.21l-.019.011-5.674,4.565a2.38,2.38,0,0,0-.371,3.333,2.352,2.352,0,0,0,3.318.371l1.843-1.479v21.74a2.359,2.359,0,1,0,4.719,0V501.68l1.843,1.479a2.35,2.35,0,0,0,3.314-.367A2.384,2.384,0,0,0,275.09,499.455Z" transform="translate(-259.908 -481.655)"/><path class="a" d="M283.009,496.059l-5.674-4.565-.019-.011a2.414,2.414,0,0,0-.315-.21l-.008,0a2.407,2.407,0,0,0-.333-.15l-.049-.019a2.461,2.461,0,0,0-.337-.086l-.06-.008a2.1,2.1,0,0,0-.708,0l-.06.008a2.46,2.46,0,0,0-.337.086l-.049.019a2.062,2.062,0,0,0-.333.15l-.008,0a2.411,2.411,0,0,0-.315.21l-.019.011-5.678,4.565a2.383,2.383,0,0,0-.367,3.333,2.348,2.348,0,0,0,3.314.371l1.846-1.483v21.744a2.358,2.358,0,1,0,4.715,0V498.28l1.846,1.483a2.35,2.35,0,0,0,3.314-.367A2.384,2.384,0,0,0,283.009,496.059Z" transform="translate(-238.17 -490.977)"/></g></svg>