<svg xmlns="http://www.w3.org/2000/svg" xmlns:xlink="http://www.w3.org/1999/xlink" width="133.164" height="139.459" viewBox="0 0 133.164 139.459"><defs><style>.a{fill:url(#a);}.b{fill:#ccc;}.c{fill:#37bffd;}.d{fill:#e6e6e6;}</style><linearGradient id="a" y1="0.5" x2="1" y2="0.5" gradientUnits="objectBoundingBox"><stop offset="0.386" stop-color="#7047ff"/><stop offset="1" stop-color="#2e76ea"/></linearGradient></defs><g transform="translate(0 0)"><path class="a" d="M240.452,535.366l-41.2,6.2-41.2-6.2V421.654l41.2-6.2,41.2,6.2V535.366Z" transform="translate(-107.288 -408.783)"/><path class="b" d="M240.452,426.482H158.046v-.2a12.716,12.716,0,0,1,12.677-12.677h57.053a12.716,12.716,0,0,1,12.677,12.677v.2Z" transform="translate(-107.288 -413.61)"/><path class="b" d="M240.452,448.834a12.717,12.717,0,0,1-12.677,12.68H170.723a12.717,12.717,0,0,1-12.677-12.68v-.2h82.406v.2Z" transform="translate(-107.288 -322.056)"/><path class="c" d="M190.172,455.164a2.325,2.325,0,0,1-1.221-4.3,14.28,14.28,0,0,0-7.488-26.438,14.357,14.357,0,0,0-12.29,7,2.324,2.324,0,1,1-4-2.374,18.929,18.929,0,0,1,35.212,9.648,18.819,18.819,0,0,1-9,16.117,2.31,2.31,0,0,1-1.218.347Z" transform="translate(-89.502 -397.497)"/><path class="b" d="M177.772,450.787l-9.2-.441-.441-9.208a6.821,6.821,0,1,1,9.645,9.648Z" transform="translate(-80.94 -346.88)"/><path class="b" d="M175.105,448.117l-9.208-.441-.441-9.2a6.821,6.821,0,1,1,9.648,9.645Z" transform="translate(-87.919 -353.858)"/><path class="b" d="M172.433,445.448l-9.2-.441-.441-9.208a6.821,6.821,0,1,1,9.645,9.648Z" transform="translate(-94.894 -360.834)"/><path class="d" d="M211.894,463.4l28.515-28.516a6.82,6.82,0,1,0-9.645-9.645l-46.129,46.125a27.435,27.435,0,0,0-7.816,23.7L144,527.9h45.395L199.52,517.77a27.436,27.436,0,0,0,23.7-7.816l17.609-17.609L211.894,463.4Z" transform="translate(-144 -388.436)"/></g></svg>