<svg xmlns="http://www.w3.org/2000/svg" width="140.438" height="238.823" viewBox="0 0 140.438 238.823"><defs><style>.a{fill:#9bdfff;}.b{fill:#67d5ff;}.c{fill:#fff;opacity:0.5;}.d{fill:#5fc1ef;}.e{fill:#409cc7;}.f{fill:#72d8ff;}</style></defs><g transform="translate(-941.069 -4068.867)"><path class="a" d="M376.118,158.529H262.492q.56,36.186-13.4,72.376a655.455,655.455,0,0,0,140.438,0Q375.5,194.713,376.118,158.529Z" transform="translate(691.981 4073.013)"/><path class="b" d="M262.492,158.529q.56,36.186-13.4,72.376,2.667.286,5.33.552A209.525,209.525,0,0,0,266.8,158.529Z" transform="translate(691.981 4073.013)"/><path class="b" d="M263.053,158.529a228.944,228.944,0,0,1-11.488,73.379q2.661.244,5.326.471a254.224,254.224,0,0,0,10.469-73.85Z" transform="translate(699.559 4073.013)"/><path class="b" d="M263.613,158.529a281.114,281.114,0,0,1-9.572,74.227c1.782.134,3.556.264,5.334.386a318.052,318.052,0,0,0,8.545-74.613Z" transform="translate(707.133 4073.013)"/><path class="b" d="M264.163,158.529a358.662,358.662,0,0,1-7.644,74.917q2.661.164,5.326.309a416.563,416.563,0,0,0,6.629-75.226Z" transform="translate(714.714 4073.013)"/><path class="b" d="M264.723,158.529a485.306,485.306,0,0,1-5.728,75.457q2.667.122,5.33.223a593.515,593.515,0,0,0,4.709-75.68Z" transform="translate(722.289 4073.013)"/><path class="b" d="M265.227,158.529a738.394,738.394,0,0,1-3.755,75.843q2.661.079,5.33.142,2.843-38.22,2.752-75.985Z" transform="translate(729.866 4073.013)"/><path class="b" d="M265.811,158.529q.024,37.812-1.863,76.07c1.782.028,3.556.049,5.334.061.589-25.545.808-50.895.8-76.131Z" transform="translate(737.441 4073.013)"/><path class="b" d="M270.742,158.529h-4.323q0,37.86.028,76.147,2.661,0,5.326-.024Q270.714,196.359,270.742,158.529Z" transform="translate(745 4073.013)"/><path class="b" d="M272.752,158.529h-4.323q-.024,37.812,1.92,76.066,2.667-.043,5.33-.106Q272.659,196.282,272.752,158.529Z" transform="translate(751.149 4073.013)"/><path class="b" d="M274.695,158.529h-4.254a726.9,726.9,0,0,0,3.812,75.831c1.778-.053,3.552-.114,5.334-.183A572,572,0,0,1,274.695,158.529Z" transform="translate(757.301 4073.013)"/><path class="b" d="M276.742,158.529h-4.311a479.886,479.886,0,0,0,5.793,75.445q2.661-.128,5.326-.272A405.555,405.555,0,0,1,276.742,158.529Z" transform="translate(763.388 4073.013)"/><path class="b" d="M278.747,158.529h-4.311a355.039,355.039,0,0,0,7.709,74.9q2.667-.158,5.33-.349A310.856,310.856,0,0,1,278.747,158.529Z" transform="translate(769.518 4073.013)"/><path class="b" d="M280.754,158.529h-4.311a279.35,279.35,0,0,0,9.629,74.2q2.661-.207,5.33-.434A249.586,249.586,0,0,1,280.754,158.529Z" transform="translate(775.646 4073.013)"/><path class="b" d="M282.762,158.529h-4.311A227.516,227.516,0,0,0,290,231.88q2.667-.25,5.334-.516A206.1,206.1,0,0,1,282.762,158.529Z" transform="translate(781.773 4073.013)"/><path class="c" d="M263.077,165.259h92.669a11.016,11.016,0,0,1,10.968,7.709c-.312-4.814-.487-9.629-.41-14.439H252.678c.073,4.668-.093,9.34-.382,14.008A10.974,10.974,0,0,1,263.077,165.259Z" transform="translate(701.795 4073.013)"/><path class="d" d="M371.309,193.364H251.647l2.915-16.813a34.216,34.216,0,0,1,33.708-28.362h46.417a34.2,34.2,0,0,1,33.7,28.362Z" transform="translate(699.809 4041.38)"/><path class="e" d="M311.237,148.189H288.269a34.216,34.216,0,0,0-33.708,28.362l-2.915,16.813h59.59Z" transform="translate(699.809 4041.38)"/><path class="d" d="M280.335,118.454H280.3a18.468,18.468,0,0,0-18.449,19.358L266.7,239.156h27.233l4.855-101.343A18.476,18.476,0,0,0,280.335,118.454Zm-.016,27.233a7.426,7.426,0,1,1,7.428-7.428A7.423,7.423,0,0,1,280.319,145.688Z" transform="translate(730.967 3950.413)"/><path class="e" d="M280.079,145.654a7.405,7.405,0,0,1,0-14.8V118.457A18.465,18.465,0,0,0,261.853,137.8L266.7,239.146h13.379Z" transform="translate(730.967 3950.423)"/><path class="f" d="M296.287,153.788l.634-11.141H262.1l.63,11.141Z" transform="translate(731.778 4024.427)"/><path class="f" d="M298.154,149.525l.654-11.553H261.831l.655,11.553Z" transform="translate(730.965 4010.123)"/><path class="f" d="M266.641,142.647v11.141h15.745l.634-11.141Z" transform="translate(745.679 4024.427)"/><path class="f" d="M266.641,137.972v11.553h16.8l.654-11.553Z" transform="translate(745.679 4010.123)"/></g></svg>