<svg xmlns="http://www.w3.org/2000/svg" width="169.292" height="131.945" viewBox="0 0 169.292 131.945"><defs><style>.a{fill:#60c5f2;}.b{fill:#113855;}.c{fill:#a7dae9;}.d{fill:#fff;}.e{fill:#409cc7;}.f{fill:#92deff;}.g{fill:#5927e2;}.h{fill:#1d5d8f;}</style></defs><g transform="translate(-943.755 -4314.37)"><g transform="translate(950 4314.371)"><g transform="translate(0 0)"><rect class="a" width="163.047" height="7.941"/></g><g transform="translate(0.106 7.752)"><rect class="b" width="7.941" height="54.79"/></g><g transform="translate(20.645 54.66)"><path class="a" d="M-28.434,173.479H-144.5a9.661,9.661,0,0,1-9.661-9.661V144.5a9.661,9.661,0,0,1,9.661-9.661H-28.434v7.94h-114.61a3.178,3.178,0,0,0-3.177,3.177V162.36a3.178,3.178,0,0,0,3.177,3.177h114.61Z" transform="translate(154.161 -134.836)"/></g><rect class="c" width="98.346" height="22.761" transform="translate(41.673 62.6)"/><path class="d" d="M-147.935,137.885a3.178,3.178,0,0,0-3.177,3.177V157.47a3.178,3.178,0,0,0,3.177,3.177H-142V137.885Z" transform="translate(179.697 -75.285)"/><rect class="e" width="104.285" height="46.719" transform="translate(29.381 7.941)"/><rect class="f" width="52.143" height="46.719" transform="translate(81.524 7.941)"/><path class="g" d="M-90.671,137.479h-7.942a36.238,36.238,0,0,0-6.351,20.5v8.859h20.645v-8.859a36.238,36.238,0,0,0-6.351-20.5Z" transform="translate(98.719 -74.936)"/><rect class="h" width="3.97" height="22.761" transform="translate(37.703 62.601)"/><rect class="d" width="98.346" height="6.353" transform="translate(41.673 67.629)"/><rect class="d" width="98.346" height="5.028" transform="translate(41.673 80.334)"/><g transform="translate(20.645 93.304)"><path class="h" d="M-28.434,188.317H-144.5a9.66,9.66,0,0,1-9.661-9.658V159.334a9.659,9.659,0,0,1,9.661-9.658H-28.434v7.94h-114.61a3.178,3.178,0,0,0-3.177,3.177V177.2a3.179,3.179,0,0,0,3.177,3.177h114.61Z" transform="translate(154.161 -149.676)"/></g><rect class="c" width="98.346" height="22.761" transform="translate(41.673 101.242)"/><path class="d" d="M-147.935,152.725a3.178,3.178,0,0,0-3.177,3.177V172.31a3.177,3.177,0,0,0,3.177,3.174H-142V152.725Z" transform="translate(179.697 -51.481)"/><rect class="h" width="3.97" height="22.761" transform="translate(37.703 101.243)"/><rect class="d" width="98.346" height="6.352" transform="translate(41.673 106.271)"/><rect class="d" width="98.346" height="5.028" transform="translate(41.673 118.976)"/></g></g></svg>