<svg xmlns="http://www.w3.org/2000/svg" xmlns:xlink="http://www.w3.org/1999/xlink" width="164.697" height="159.016" viewBox="0 0 164.697 159.016"><defs><style>.a{fill:#f2f2f2;}.b{fill:#e6e6e6;}.c{fill:#cbcbcb;}.d{fill:url(#a);}.e{fill:#37bffd;}.f{fill:#ccc;}</style><linearGradient id="a" y1="0.5" x2="1" y2="0.5" gradientUnits="objectBoundingBox"><stop offset="0.386" stop-color="#7047ff"/><stop offset="1" stop-color="#2e76ea"/></linearGradient></defs><path class="a" d="M355.539,437.573h42.591a5.682,5.682,0,0,1,5.681,5.681v62.47a5.682,5.682,0,0,1-5.681,5.681H355.539a5.682,5.682,0,0,1-5.681-5.681v-62.47a5.682,5.682,0,0,1,5.681-5.681Zm0,0" transform="translate(-239.114 -352.388)"/><path class="b" d="M403.81,453.289H349.858v11.358a5.682,5.682,0,0,0,5.681,5.681h42.591a5.682,5.682,0,0,0,5.681-5.681Zm0,0" transform="translate(-239.114 -311.312)"/><path class="a" d="M398.363,433.875h-3.035a22.7,22.7,0,0,0-45.041,0h-3.035a17.038,17.038,0,0,0-17.038,17.038v2.84a17.038,17.038,0,0,0,17.038,17.035h51.112A17.038,17.038,0,0,0,415.4,453.754v-2.84a17.038,17.038,0,0,0-17.038-17.038Zm0,0" transform="translate(-290.459 -414)"/><path class="a" d="M401.081,489.471H321.569V444.04a5.681,5.681,0,0,1,5.681-5.681H395.4a5.681,5.681,0,0,1,5.681,5.681Zm0,0" transform="translate(-313.052 -350.334)"/><path class="b" d="M408.108,469.541H326.862a5.677,5.677,0,0,1-5.6-4.745L319.212,452.5h96.546L413.709,464.8a5.677,5.677,0,0,1-5.6,4.745Zm0,0" transform="translate(-319.212 -313.366)"/><path class="c" d="M329.427,452.5l2.84,8.521h17.038l2.84-8.521Zm0,0" transform="translate(-292.513 -313.366)"/><rect class="d" width="45.434" height="28.396" transform="translate(25.556 99.384)"/><path class="e" d="M326.284,441.5,349,458.54,371.719,441.5Zm0,0" transform="translate(-300.728 -342.119)"/><rect class="e" width="5.679" height="5.679" transform="translate(17.038 73.828)"/><path class="e" d="M329.6,441.076h-5.677v-8.521a2.841,2.841,0,0,1,2.84-2.84h8.517V435.4H329.6Zm0,0" transform="translate(-306.889 -372.926)"/><rect class="e" width="5.679" height="5.679" transform="translate(34.075 56.791)"/><rect class="e" width="5.679" height="5.679" transform="translate(144.819 70.989)"/><path class="e" d="M369.074,440.288h-5.681v-5.681h-5.677V428.93h8.517a2.84,2.84,0,0,1,2.84,2.837Zm0,0" transform="translate(-218.575 -374.978)"/><rect class="e" width="5.679" height="5.679" transform="translate(127.782 53.951)"/><rect class="d" width="31.236" height="22.717" transform="translate(122.103 105.064)"/><path class="e" d="M368.619,454.432l15.618-11.358H353Zm0,0" transform="translate(-230.899 -338.01)"/><path class="c" d="M358.984,460.538a2.824,2.824,0,0,1-2.016-.82,2.963,2.963,0,0,1-.824-2.016,2.854,2.854,0,1,1,2.84,2.837Zm0,0" transform="translate(-222.684 -307.203)"/><rect class="f" width="5.679" height="5.679" transform="translate(79.509 42.593)"/><rect class="f" width="5.679" height="5.679" transform="translate(90.867 42.593)"/><rect class="f" width="5.679" height="5.679" transform="translate(102.225 42.593)"/><rect class="f" width="17.038" height="5.679" transform="translate(56.792 42.593)"/></svg>