<svg xmlns="http://www.w3.org/2000/svg" xmlns:xlink="http://www.w3.org/1999/xlink" width="99.283" height="99.283" viewBox="0 0 99.283 99.283"><defs><style>.a{fill:none;stroke:#67d5ff;stroke-linecap:round;stroke-linejoin:round;stroke-width:7px;}.b{filter:url(#a);}</style><filter id="a" x="0" y="0" width="99.283" height="99.283" filterUnits="userSpaceOnUse"><feOffset dy="3" input="SourceAlpha"/><feGaussianBlur stdDeviation="3" result="b"/><feFlood flood-opacity="0.302"/><feComposite operator="in" in2="b"/><feComposite in="SourceGraphic"/></filter></defs><g transform="translate(11.5 8.5)"><circle class="a" cx="10.13" cy="10.13" r="10.13" transform="translate(28.012 28.012)"/><g class="b" transform="matrix(1, 0, 0, 1, -11.5, -8.5)"><path class="a" d="M63.128,48.271a5.571,5.571,0,0,0,1.114,6.145l.2.2a6.755,6.755,0,0,1,.007,9.549l-.007.007a6.755,6.755,0,0,1-9.549.007l-.007-.007-.2-.2a5.616,5.616,0,0,0-9.522,3.984v.574a6.753,6.753,0,1,1-13.506,0v-.3a5.573,5.573,0,0,0-3.647-5.1,5.571,5.571,0,0,0-6.145,1.114l-.2.2a6.755,6.755,0,0,1-9.549.007l-.007-.007A6.755,6.755,0,0,1,12.1,54.9l.007-.007.2-.2a5.616,5.616,0,0,0-3.984-9.522H7.753a6.753,6.753,0,1,1,0-13.506h.3a5.573,5.573,0,0,0,5.1-3.647,5.571,5.571,0,0,0-1.114-6.145l-.2-.2a6.755,6.755,0,0,1-.007-9.549l.007-.007a6.755,6.755,0,0,1,9.549-.007l.007.007.2.2a5.571,5.571,0,0,0,6.145,1.114h.27a5.574,5.574,0,0,0,3.377-5.1V7.753a6.753,6.753,0,1,1,13.506,0v.3a5.616,5.616,0,0,0,9.522,3.984l.2-.2a6.755,6.755,0,0,1,9.549-.007l.007.007a6.755,6.755,0,0,1,.007,9.549l-.007.007-.2.2a5.571,5.571,0,0,0-1.114,6.145v.27a5.574,5.574,0,0,0,5.1,3.377h.574a6.753,6.753,0,1,1,0,13.506h-.3A5.574,5.574,0,0,0,63.128,48.271Z" transform="translate(11.5 8.5)"/></g></g></svg>