<svg xmlns="http://www.w3.org/2000/svg" width="36.377" height="125.792" viewBox="0 0 36.377 125.792"><defs><style>.a{fill:#88d2ff;}.b{fill:#8fe0ff;}.c{opacity:0.5;}.d{fill:#599fd2;}</style></defs><path class="a" d="M1.169,0h12.01a1.169,1.169,0,0,1,1.169,1.169V125.236a0,0,0,0,1,0,0H0a0,0,0,0,1,0,0V1.169A1.169,1.169,0,0,1,1.169,0Z" transform="translate(22.256 0) rotate(10.237)"/><g transform="translate(19.824 0)"><path class="b" d="M1.169,0h12.01a1.169,1.169,0,0,1,1.169,1.169V13.69a0,0,0,0,1,0,0H0a0,0,0,0,1,0,0V1.169A1.169,1.169,0,0,1,1.169,0Z" transform="matrix(0.984, 0.178, -0.178, 0.984, 2.433, 0)"/></g><g class="c" transform="translate(19.065 13.484)"><rect class="d" width="4.297" height="14.35" transform="matrix(0.178, -0.984, 0.984, 0.178, 0, 4.228)"/></g></svg>