<svg xmlns="http://www.w3.org/2000/svg" xmlns:xlink="http://www.w3.org/1999/xlink" width="208.383" height="208.125" viewBox="0 0 208.383 208.125"><defs><style>.a{fill:#d5e3ef;}.b{fill:#b0c4d9;}.c{fill:#37bffd;}.d{fill:url(#a);}.e{fill:#99b4cd;}.f{fill:#6c9abb;}.g{fill:#b3b3b3;}.h{fill:#4c9cd6;}.i{fill:#e6e6e6;}.j{fill:#ecf0f9;}.k{fill:#f2f2f2;}</style><linearGradient id="a" y1="0.5" x2="1" y2="0.5" gradientUnits="objectBoundingBox"><stop offset="0.386" stop-color="#7047ff"/><stop offset="1" stop-color="#2e76ea"/></linearGradient></defs><path class="a" d="M263.891,396.7l-56.707-56.7,46.308-46.308a150.312,150.312,0,0,1,81.278-42.055l8.505-1.419h1.414a8.475,8.475,0,0,1,8.511,8.505v1.419l-.95,8.98a149.8,149.8,0,0,1-41.581,80.8Zm0,0" transform="translate(-145.286 -250.212)"/><path class="b" d="M281.857,309.862l-67.57,67.57,16.535,16.54,46.308-46.308a148.288,148.288,0,0,0,41.586-80.8l1.889-8.98v-1.414a7.824,7.824,0,0,0-2.364-5.672,148.8,148.8,0,0,1-36.384,59.065Zm0,0" transform="translate(-112.222 -247.489)"/><path class="c" d="M231.631,285.8a7.418,7.418,0,0,0-10.394,0c-3.778,3.783-6.141,15.6-6.616,16.071v.469s.475.475.475,0c.469,0,11.813-2.364,16.066-6.616,3.777-2.833,3.777-7.086.469-9.924Zm0,0" transform="translate(-110.667 -94.43)"/><path class="c" d="M212.862,267.42a7.425,7.425,0,0,0-10.4,0c-3.777,3.783-6.141,15.121-6.141,15.591v.475s.475.475.475,0c.469,0,11.813-2.364,16.066-6.616,3.308-2.364,3.308-6.616,0-9.449Zm0,0" transform="translate(-195.852 -180.001)"/><path class="d" d="M246.8,283.376a22.238,22.238,0,0,0-31.187,0c-11.813,11.813-18.9,46.3-19.374,47.722,0,.944,0,1.419.469,1.894a6.042,6.042,0,0,0,2.839.47c1.414-.47,35.909-7.086,47.722-19.374a21.27,21.27,0,0,0-.469-30.712Zm0,0" transform="translate(-196.238 -125.548)"/><path class="c" d="M225.545,280.83a11.128,11.128,0,0,0-15.6,0c-6.141,6.141-9.449,23.151-9.449,23.626s0,.944.475.944c.475.475.475.475.944.475.944,0,17.954-3.783,23.626-9.449a11.128,11.128,0,0,0,0-15.6Zm0,0" transform="translate(-176.404 -122.533)"/><path class="e" d="M229.717,315.3,215.54,301.122l28.354-28.348v28.348Zm0,0" transform="translate(-106.389 -145.188)"/><path class="f" d="M228.3,297.814l8.974-8.974a22.5,22.5,0,0,0,6.616-16.066L215.54,301.122,229.717,315.3l4.727-4.722L228.3,304.43a4.562,4.562,0,0,1,0-6.616Zm0,0" transform="translate(-106.389 -145.188)"/><path class="a" d="M235.275,331.987l-18.9-18.9,34.02-34.02a13.367,13.367,0,0,1,18.9,18.9Zm0,0" transform="translate(-102.498 -133.523)"/><path class="b" d="M269.3,281.507l-34.025,34.02L221.1,301.355l-4.727,4.722,18.9,18.9L269.3,290.956a13.181,13.181,0,0,0,3.777-9.449,13.888,13.888,0,0,0-.944-4.722,9.785,9.785,0,0,1-2.833,4.722Zm0,0" transform="translate(-102.498 -126.518)"/><path class="e" d="M203.006,281.388a24.265,24.265,0,0,1,10.869-6.616l8.036-2.833,28.348,28.354-2.833,8.03a28.084,28.084,0,0,1-6.616,10.869Zm0,0" transform="translate(-164.734 -149.08)"/><path class="f" d="M212.186,271.938l-7.091,2.364,15.6,15.591a13.545,13.545,0,0,1,3.3,13.7,15.84,15.84,0,0,1-2.833,5.672l9.924,9.924a24.188,24.188,0,0,0,6.616-10.869l2.833-8.03Zm0,0" transform="translate(-155.01 -149.08)"/><path class="e" d="M203.006,276.923,217.183,291.1l28.354-28.354H217.183Zm0,0" transform="translate(-164.734 -191.868)"/><path class="f" d="M215.763,280.231a4.571,4.571,0,0,1,0-6.616l10.869-10.869h-9.449l-14.177,14.177L217.183,291.1a6.315,6.315,0,0,0,0-9.449Zm0,0" transform="translate(-164.734 -191.868)"/><path class="a" d="M197.992,294.7l18.9,18.9,34.02-34.02a13.194,13.194,0,0,0,3.783-9.449A13.524,13.524,0,0,0,241.467,256.9a13.214,13.214,0,0,0-9.449,3.778Zm0,0" transform="translate(-188.073 -219.094)"/><path class="c" d="M254.179,279.139a18.9,18.9,0,1,1-18.9-18.9,18.9,18.9,0,0,1,18.9,18.9Zm0,0" transform="translate(-102.498 -203.533)"/><path class="g" d="M239.166,306.656A23.626,23.626,0,1,1,262.8,283.03a23.4,23.4,0,0,1-23.632,23.626Zm0-37.8a14.177,14.177,0,1,0,14.177,14.177,13.92,13.92,0,0,0-14.177-14.177Zm0,0" transform="translate(-106.389 -207.424)"/><path class="h" d="M223.827,287.534A14.557,14.557,0,0,1,236.115,265.8a19.839,19.839,0,0,1,7.561,1.889c-2.833-3.778-7.091-6.616-12.288-6.616a13.925,13.925,0,0,0-14.177,14.177c.006,5.2,2.839,9.449,6.616,12.283Zm0,0" transform="translate(-98.611 -199.646)"/><path class="i" d="M277.894,322.791l-15.6,15.6a4.571,4.571,0,0,1-6.616,0L205.6,288.3a4.561,4.561,0,0,1,0-6.616l15.591-15.591Zm0,0" transform="translate(-159.289 -176.306)"/><path class="g" d="M242.924,299.785l-29.767-29.773c-1.894-1.889-5.2-1.889-7.561,0a4.561,4.561,0,0,0,0,6.616l50.085,50.085a4.561,4.561,0,0,0,6.616,0l15.6-15.591-16.541-16.54-5.2,5.2a9.142,9.142,0,0,1-13.232,0Zm0,0" transform="translate(-159.289 -164.639)"/><path class="i" d="M249.48,298.534l-14.035,14.03-19.04-19.04,14.03-14.036Zm0,0" transform="translate(-102.363 -113.935)"/><path class="g" d="M244.73,284.3l-6.616,6.616a6.315,6.315,0,0,1-9.449,0l-9.455-9.45-2.833,2.833,18.9,18.9,14.177-14.177Zm0,0" transform="translate(-102.498 -104.737)"/><path class="j" d="M212.669,288.816a2.868,2.868,0,0,1-1.894-.469,2.286,2.286,0,0,1,0-3.308l23.632-23.632a2.337,2.337,0,0,1,3.3,3.308l-23.626,23.632c0,.469-.944.469-1.414.469Zm0,0" transform="translate(-131.867 -201.397)"/><path class="j" d="M218.517,271.3a2.818,2.818,0,0,1-1.889-.475,2.276,2.276,0,0,1,0-3.308l9.449-9.449a2.339,2.339,0,0,1,3.308,3.308l-9.449,9.449c0,.475-.944.475-1.419.475Zm0,0" transform="translate(-104.639 -216.954)"/><path class="i" d="M274.372,250.212h-1.419l-8.974,1.419a143.391,143.391,0,0,0-41.586,13.7L267.756,310.7a159.074,159.074,0,0,0,13.7-41.58l1.419-8.511v-1.414c0-5.2-3.777-8.98-8.5-8.98Zm0,0" transform="translate(-74.494 -250.212)"/><path class="k" d="M227.66,263.748a2.589,2.589,0,0,1-2.364-1.414,1.982,1.982,0,0,1,1.414-2.839,153.811,153.811,0,0,1,28.829-8.03,2.408,2.408,0,0,1,.944,4.722,143.094,143.094,0,0,0-27.879,7.561Zm0,0" transform="translate(-61.803 -244.375)"/><path class="k" d="M239.166,259.879V259.4A23.4,23.4,0,0,0,215.54,283.03h.475a4.607,4.607,0,0,0,4.728-3.777c.469-3.308,2.358-6.147,4.252-8.511a21.123,21.123,0,0,1,10.394-6.141,4.6,4.6,0,0,0,3.777-4.722Zm0,0" transform="translate(-106.389 -207.424)"/><path class="g" d="M219.718,286.739v.469a23.4,23.4,0,0,0,23.632-23.626h-.475a4.606,4.606,0,0,0-4.727,3.783c-.469,3.3-2.358,6.141-4.252,8.5a21.091,21.091,0,0,1-10.394,6.147,4.6,4.6,0,0,0-3.783,4.728Zm0,0" transform="translate(-86.941 -187.976)"/><path class="j" d="M223.532,290.516a2.842,2.842,0,0,1-1.894-.475,2.286,2.286,0,0,1,0-3.308l9.455-9.45a2.337,2.337,0,1,1,3.3,3.308l-9.449,9.449c0,.475-.944.475-1.414.475Zm0,0" transform="translate(-81.301 -127.492)"/><path class="b" d="M250.911,263.128l-34.02,34.02-14.177-14.177-4.722,4.727,18.9,18.9,34.02-34.02a13.2,13.2,0,0,0,3.783-9.449,14.056,14.056,0,0,0-.945-4.727,9.837,9.837,0,0,1-2.839,4.727Zm0,0" transform="translate(-188.069 -212.093)"/><path class="j" d="M205.144,272.128a2.853,2.853,0,0,1-1.889-.469,2.286,2.286,0,0,1,0-3.308L212.7,258.9a2.339,2.339,0,0,1,3.308,3.308l-9.449,9.449c0,.469-.944.469-1.419.469Zm0,0" transform="translate(-166.871 -213.063)"/><path class="i" d="M231.094,280.145l-14.03,14.036-19.046-19.046,14.03-14.03Zm0,0" transform="translate(-187.948 -199.506)"/><path class="g" d="M226.346,265.919l-6.616,6.616a6.316,6.316,0,0,1-9.449,0l-9.449-9.455-2.839,2.839,18.9,18.9,14.177-14.177Zm0,0" transform="translate(-188.073 -190.313)"/><path class="g" d="M228.325,296.16l11.813,11.813a159.073,159.073,0,0,0,13.7-41.58l1.419-8.511v-1.414A7.824,7.824,0,0,0,252.9,250.8a146.265,146.265,0,0,1-24.571,45.363Zm0,0" transform="translate(-46.876 -247.489)"/></svg>