<svg xmlns="http://www.w3.org/2000/svg" xmlns:xlink="http://www.w3.org/1999/xlink" width="107.641" height="99.979" viewBox="0 0 107.641 99.979"><defs><style>.a{fill:none;stroke:#67d5ff;stroke-linecap:round;stroke-linejoin:round;stroke-width:7px;}.b{filter:url(#c);}.c{filter:url(#a);}</style><filter id="a" x="7.662" y="0" width="58.324" height="58.324" filterUnits="userSpaceOnUse"><feOffset dy="3" input="SourceAlpha"/><feGaussianBlur stdDeviation="3" result="b"/><feFlood flood-opacity="0.302"/><feComposite operator="in" in2="b"/><feComposite in="SourceGraphic"/></filter><filter id="c" x="70.144" y="50.527" width="37.496" height="49.452" filterUnits="userSpaceOnUse"><feOffset dy="3" input="SourceAlpha"/><feGaussianBlur stdDeviation="3" result="d"/><feFlood flood-opacity="0.31"/><feComposite operator="in" in2="d"/><feComposite in="SourceGraphic"/></filter></defs><g transform="translate(2.5 6.5)"><path class="a" d="M67.648,39.993V31.662A16.663,16.663,0,0,0,50.986,15H17.662A16.663,16.663,0,0,0,1,31.662v8.331" transform="translate(0 37.986)"/><g class="c" transform="matrix(1, 0, 0, 1, -2.5, -6.5)"><circle class="a" cx="16.662" cy="16.662" r="16.662" transform="translate(20.16 9.5)"/></g><g class="b" transform="matrix(1, 0, 0, 1, -2.5, -6.5)"><path class="a" d="M32.5,39.581V31.25A16.661,16.661,0,0,0,20,15.13" transform="translate(62.64 44.9)"/></g><path class="a" d="M16,3.13a16.662,16.662,0,0,1,0,32.282" transform="translate(47.482 0.412)"/></g></svg>