<svg xmlns="http://www.w3.org/2000/svg" xmlns:xlink="http://www.w3.org/1999/xlink" width="103.256" height="149.552" viewBox="0 0 103.256 149.552"><defs><style>.a{fill:#ebeef2;}.b{fill:#f2f2f2;}.c{fill:#ccc;}.d{fill:#d1d6de;}.e{fill:#606060;}.f{fill:#b3b3b3;}.g{fill:url(#a);}.h{fill:#7047ff;}.i{fill:#37bffd;}</style><linearGradient id="a" y1="0.5" x2="1" y2="0.5" gradientUnits="objectBoundingBox"><stop offset="0.386" stop-color="#7047ff"/><stop offset="1" stop-color="#2e76ea"/></linearGradient></defs><path class="a" d="M435.313,511.158v99.063a7.084,7.084,0,0,1-7.082,7.086H343.523a7.084,7.084,0,0,1-7.082-7.086V493.545a7.081,7.081,0,0,1,7.082-7.086h67.092Z" transform="translate(-334.249 -484.267)"/><path class="b" d="M438.515,511.259l-24.7-24.7a2.2,2.2,0,0,0-1.55-.641H345.174A9.284,9.284,0,0,0,335.9,495.2V611.872a9.283,9.283,0,0,0,9.273,9.273h84.709a9.283,9.283,0,0,0,9.273-9.273V512.809A2.2,2.2,0,0,0,438.515,511.259Zm-10.43-2.333v89.218a1.451,1.451,0,0,1-1.295,1.432,10.585,10.585,0,0,0-9.208,9.2,1.451,1.451,0,0,1-1.433,1.295H358.907a1.451,1.451,0,0,1-1.433-1.295,10.585,10.585,0,0,0-9.208-9.2,1.451,1.451,0,0,1-1.295-1.432V508.925a1.452,1.452,0,0,1,1.295-1.433,10.585,10.585,0,0,0,9.208-9.208,1.452,1.452,0,0,1,1.433-1.295H416.15a1.451,1.451,0,0,1,1.433,1.295,10.59,10.59,0,0,0,9.208,9.208A1.452,1.452,0,0,1,428.085,508.925Z" transform="translate(-335.901 -485.919)"/><path class="c" d="M373.529,504.506,357.15,488.127v7.155l9.225,9.224a2.2,2.2,0,0,1,.641,1.55v99.063a9.287,9.287,0,0,1-9.277,9.273H364.9a9.283,9.283,0,0,0,9.273-9.273V506.056A2.2,2.2,0,0,0,373.529,504.506Z" transform="translate(-270.915 -479.166)"/><path class="d" d="M382.615,511.258l-24.7-24.7a2.189,2.189,0,0,0-3.738,1.55v17.613A9.284,9.284,0,0,0,363.452,515h17.613a2.191,2.191,0,0,0,1.55-3.742Z" transform="translate(-280.002 -485.918)"/><path class="e" d="M381.263,497.231H345.919a2.191,2.191,0,1,1,0-4.383h35.344a2.191,2.191,0,0,1,0,4.383Z" transform="translate(-311.964 -464.728)"/><g transform="translate(21.947 51.325)"><path class="e" d="M398.478,502.949H343.5a2.191,2.191,0,0,1,0-4.383h54.978a2.191,2.191,0,0,1,0,4.383Z" transform="translate(-341.309 -498.566)"/><path class="e" d="M398.478,506.423H343.5a2.191,2.191,0,0,1,0-4.383h54.978a2.191,2.191,0,0,1,0,4.383Z" transform="translate(-341.309 -487.941)"/><path class="e" d="M398.478,509.9H343.5a2.191,2.191,0,0,1,0-4.383h54.978a2.191,2.191,0,0,1,0,4.383Z" transform="translate(-341.309 -477.317)"/><path class="e" d="M398.478,513.371H343.5a2.191,2.191,0,0,1,0-4.383h54.978a2.191,2.191,0,0,1,0,4.383Z" transform="translate(-341.309 -466.692)"/></g><path class="f" d="M370.94,515.969v32.109a2.183,2.183,0,0,1-1.769,2.147,1.844,1.844,0,0,1-.418.045,2.19,2.19,0,0,1-2.033-1.376c-1.262-3.129-3.04-5.337-5-6.286a4.789,4.789,0,0,0-4.379,0c-1.96.954-3.742,3.161-5,6.291a2.192,2.192,0,0,1-4.225-.816V515.969a2.193,2.193,0,0,1,2.192-2.191h18.445A2.189,2.189,0,0,1,370.94,515.969Z" transform="translate(-298.544 -400.718)"/><path class="c" d="M354.768,516.182V541.96a4.79,4.79,0,0,0-4.379,0V516.182a2.189,2.189,0,1,1,4.379,0Z" transform="translate(-291.592 -400.07)"/><path class="g" d="M385.6,523.508l-1.8-1.441a1.667,1.667,0,0,1-.617-1.493l.252-2.289a6.056,6.056,0,0,0-6.684-6.684l-2.289.252a1.676,1.676,0,0,1-1.494-.621l-1.441-1.794a6.057,6.057,0,0,0-9.452,0l-1.441,1.794a1.68,1.68,0,0,1-1.493.621l-2.289-.252a6.056,6.056,0,0,0-6.684,6.684l.252,2.289a1.68,1.68,0,0,1-.621,1.493l-1.8,1.441a6.057,6.057,0,0,0,0,9.452l1.8,1.441a1.68,1.68,0,0,1,.621,1.493l-.252,2.289a6.055,6.055,0,0,0,6.684,6.684l2.289-.252a1.666,1.666,0,0,1,1.489.617l1.441,1.8A6.038,6.038,0,0,0,366.8,549.3h0a6.032,6.032,0,0,0,4.728-2.268l1.441-1.8a1.661,1.661,0,0,1,1.489-.617l2.293.252a6.055,6.055,0,0,0,6.684-6.684l-.252-2.289a1.667,1.667,0,0,1,.617-1.493l1.8-1.441a6.057,6.057,0,0,0,0-9.452Z" transform="translate(-305.82 -420.93)"/><path class="h" d="M372.426,520.193l-1.8-1.441a1.667,1.667,0,0,1-.617-1.494l.252-2.289a6.055,6.055,0,0,0-5.8-6.716,6.152,6.152,0,0,1,.7.6A6.026,6.026,0,0,1,366.9,513.8l-.252,2.289a1.687,1.687,0,0,0,.617,1.494l1.8,1.441a6.057,6.057,0,0,1,0,9.452l-1.8,1.441a1.687,1.687,0,0,0-.617,1.493l.252,2.289a6.055,6.055,0,0,1-6.684,6.684l-2.289-.252a1.667,1.667,0,0,0-1.493.617l-1.44,1.8a6.018,6.018,0,0,1-4.724,2.269h0c-.077,0-.154,0-.227,0a6.031,6.031,0,0,0,3.583,1.173h0a6.032,6.032,0,0,0,4.728-2.269l1.441-1.8a1.664,1.664,0,0,1,1.493-.617l2.289.252a6.055,6.055,0,0,0,6.684-6.684l-.252-2.289a1.667,1.667,0,0,1,.617-1.493l1.8-1.441a6.057,6.057,0,0,0,0-9.452Z" transform="translate(-292.644 -417.615)"/><circle class="i" cx="8.809" cy="8.809" r="8.809" transform="translate(52.177 98.493)"/></svg>