<svg xmlns="http://www.w3.org/2000/svg" xmlns:xlink="http://www.w3.org/1999/xlink" width="323.002" height="326.84" viewBox="0 0 323.002 326.84"><defs><style>.a{fill:#60c5f2;}.b{fill:url(#a);}</style><linearGradient id="a" x1="0.5" x2="0.5" y2="1" gradientUnits="objectBoundingBox"><stop offset="0" stop-color="#5927e2"/><stop offset="1" stop-color="#5292e9"/></linearGradient></defs><g transform="translate(176.842 -38.258) rotate(60)"><path class="a" d="M268.969,228.4a27.836,27.836,0,0,1-18.974-7.229L120.34,98.643a16.233,16.233,0,0,0-14.968-3.783,48.164,48.164,0,0,1-10.464,1.759A53.663,53.663,0,0,1,57.647,81.84,44.576,44.576,0,0,1,43.806,46.722a4.692,4.692,0,0,1,2.659-3.86,5.935,5.935,0,0,1,5.294,0l28,15.447c8.52-4.046,14.078-11.644,15-20.283L63.483,20.763a4.691,4.691,0,0,1-2.488-3.709A4.549,4.549,0,0,1,62.9,13.07,53.447,53.447,0,0,1,93.823,2.5a50.117,50.117,0,0,1,34.76,13.554c12.563,11.538,17.63,26.694,14.672,43.854a13.5,13.5,0,0,0,4.414,12.433L281.551,192.077a23.927,23.927,0,0,1,7.894,17.489C289.445,219.958,280.26,228.4,268.969,228.4Z" transform="translate(2 -3)"/><path class="b" d="M267.785,228.755a27.837,27.837,0,0,1-18.971-7.232L119.16,99a16.249,16.249,0,0,0-14.971-3.783,48.186,48.186,0,0,1-10.464,1.761A53.662,53.662,0,0,1,56.468,82.2,44.574,44.574,0,0,1,42.624,47.076a4.693,4.693,0,0,1,2.663-3.858,5.916,5.916,0,0,1,5.294,0l28,15.444c8.516-4.046,14.078-11.644,15-20.283L62.3,21.117a4.684,4.684,0,0,1-2.488-3.709,4.553,4.553,0,0,1,1.9-3.983A53.462,53.462,0,0,1,92.64,2.856,50.13,50.13,0,0,1,127.4,16.411c12.56,11.538,17.63,26.694,14.672,43.854A13.5,13.5,0,0,0,146.486,72.7L280.37,192.43a23.943,23.943,0,0,1,7.894,17.489C288.264,220.311,279.079,228.755,267.785,228.755Z" transform="translate(0)"/></g></svg>