<svg xmlns="http://www.w3.org/2000/svg" xmlns:xlink="http://www.w3.org/1999/xlink" width="133.164" height="140.85" viewBox="0 0 133.164 140.85"><defs><style>.a{fill:#ccc;}.b{fill:#dcdcdc;}.c{fill:#6151fa;}.d{fill:url(#a);}.e{fill:#f2f2f2;}.f{fill:#37bffd;}</style><linearGradient id="a" y1="0.5" x2="1" y2="0.5" gradientUnits="objectBoundingBox"><stop offset="0.386" stop-color="#7047ff"/><stop offset="1" stop-color="#2e76ea"/></linearGradient></defs><g transform="translate(0 0)"><path class="a" d="M232.7,417.331H355.618a5.119,5.119,0,0,1,5.121,5.121v117.8a5.122,5.122,0,0,1-5.121,5.124H232.7a5.122,5.122,0,0,1-5.121-5.124v-117.8a5.119,5.119,0,0,1,5.121-5.121Zm0,0" transform="translate(-227.575 -404.524)"/><rect class="b" width="102.435" height="87.069" transform="translate(15.364 35.854)"/><path class="c" d="M232.7,417.331H355.618a5.119,5.119,0,0,1,5.121,5.121v20.486H227.575V422.452a5.119,5.119,0,0,1,5.121-5.121Zm0,0" transform="translate(-227.575 -404.524)"/><path class="d" d="M264.523,428.669l7.914,16.034,17.7,2.573-12.807,12.482,3.025,17.624-15.828-8.322L248.7,477.381l3.025-17.624-12.807-12.482,17.7-2.573Zm0,0" transform="translate(-197.941 -374.89)"/><rect class="e" width="5.122" height="5.122" transform="translate(23.047 81.949)"/><rect class="e" width="5.122" height="5.122" transform="translate(33.291 81.949)"/><rect class="e" width="5.122" height="5.122" transform="translate(23.047 107.558)"/><rect class="e" width="5.122" height="5.122" transform="translate(33.291 107.558)"/><rect class="e" width="5.122" height="5.122" transform="translate(43.534 107.558)"/><rect class="e" width="5.122" height="5.122" transform="translate(53.778 107.558)"/><rect class="e" width="5.122" height="5.122" transform="translate(64.021 107.558)"/><rect class="e" width="5.122" height="5.122" transform="translate(74.264 107.558)"/><rect class="e" width="5.122" height="5.122" transform="translate(23.047 51.219)"/><rect class="e" width="5.122" height="5.122" transform="translate(33.291 51.219)"/><rect class="e" width="5.122" height="5.122" transform="translate(43.534 51.219)"/><rect class="e" width="5.122" height="5.122" transform="translate(53.778 51.219)"/><rect class="e" width="5.122" height="5.122" transform="translate(94.751 51.219)"/><rect class="e" width="5.122" height="5.122" transform="translate(104.995 51.219)"/><rect class="e" width="5.122" height="5.122" transform="translate(74.264 51.219)"/><rect class="e" width="5.122" height="5.122" transform="translate(84.508 51.219)"/><rect class="e" width="5.122" height="5.122" transform="translate(94.751 81.949)"/><rect class="e" width="5.122" height="5.122" transform="translate(104.995 81.949)"/><rect class="e" width="5.122" height="5.122" transform="translate(94.751 107.558)"/><rect class="e" width="5.122" height="5.122" transform="translate(84.508 107.558)"/><rect class="e" width="5.122" height="5.122" transform="translate(104.995 107.558)"/><path class="f" d="M238.365,413.787a5.125,5.125,0,0,1,5.124,5.124v12.8a5.122,5.122,0,0,1-10.245,0v-12.8a5.124,5.124,0,0,1,5.121-5.124Zm0,0" transform="translate(-212.758 -413.787)"/><path class="f" d="M261.045,413.787a5.124,5.124,0,0,1,5.121,5.124v12.8a5.122,5.122,0,0,1-10.245,0v-12.8a5.125,5.125,0,0,1,5.124-5.124Zm0,0" transform="translate(-153.488 -413.787)"/></g></svg>