<svg xmlns="http://www.w3.org/2000/svg" width="31.212" height="147.138" viewBox="0 0 31.212 147.138"><defs><style>.a{fill:#599fd2;}.b{fill:#c3ecfe;}</style></defs><g transform="translate(15.302 -0.271) rotate(6)"><g transform="translate(2.595)"><path class="a" d="M309.117,208a.616.616,0,0,1-.582-.573l-.219-3.113a.617.617,0,0,1,1.232-.086l.219,3.111a.617.617,0,0,1-.573.659A.424.424,0,0,1,309.117,208Z" transform="translate(-308.314 -203.655)"/></g><g transform="translate(0 13.167)"><path class="b" d="M324.037,344.719l-8.227.578-9.154-132.65,4.114-.288,4.113-.289Z" transform="translate(-306.656 -212.068)"/></g><path class="b" d="M310.832,205.215l-1.663.117-2.513,11.187,8.227-.577Z" transform="translate(-306.656 -202.774)"/></g></svg>