<svg xmlns="http://www.w3.org/2000/svg" xmlns:xlink="http://www.w3.org/1999/xlink" width="97.979" height="97.979" viewBox="0 0 97.979 97.979"><defs><style>.a,.b{fill:none;stroke:#67d5ff;stroke-linecap:round;stroke-width:7px;}.b{stroke-linejoin:round;}.c{filter:url(#c);}.d{filter:url(#a);}</style><filter id="a" x="0" y="36.489" width="97.979" height="25" filterUnits="userSpaceOnUse"><feOffset dy="3" input="SourceAlpha"/><feGaussianBlur stdDeviation="3" result="b"/><feFlood flood-opacity="0.302"/><feComposite operator="in" in2="b"/><feComposite in="SourceGraphic"/></filter><filter id="c" x="0" y="0" width="97.979" height="97.979" filterUnits="userSpaceOnUse"><feOffset dy="3" input="SourceAlpha"/><feGaussianBlur stdDeviation="3" result="d"/><feFlood flood-opacity="0.302"/><feComposite operator="in" in2="d"/><feComposite in="SourceGraphic"/></filter></defs><g transform="translate(10.5 7.5)"><g class="d" transform="matrix(1, 0, 0, 1, -10.5, -7.5)"><path class="a" d="M0,0H72.979" transform="translate(12.5 45.99)"/></g><path class="b" d="M22.6,2a55.826,55.826,0,0,1,14.6,36.489A55.826,55.826,0,0,1,22.6,74.979,55.826,55.826,0,0,1,8,38.489,55.826,55.826,0,0,1,22.6,2Z" transform="translate(15.894)"/><g class="c" transform="matrix(1, 0, 0, 1, -10.5, -7.5)"><path class="a" d="M36.489,0A36.489,36.489,0,0,1,72.979,36.489a37.362,37.362,0,0,1-.816,7.71A36.493,36.493,0,1,1,36.489,0Z" transform="translate(12.5 9.5)"/></g></g></svg>