<svg xmlns="http://www.w3.org/2000/svg" width="60.499" height="181.298" viewBox="0 0 60.499 181.298"><defs><style>.a,.c{fill:none;stroke-width:2px;}.a{stroke:#21248a;stroke-miterlimit:10;}.b{fill:#9bdfff;}.c{stroke:#3f7fef;stroke-linecap:round;stroke-linejoin:round;}.d{fill:#eff6ff;}</style></defs><g transform="translate(1 1)"><g transform="translate(36.772 36.976)"><line class="a" x2="22.728"/><line class="a" x2="22.728" transform="translate(0 105.345)"/><line class="a" x2="22.728" transform="translate(0 50.178)"/></g><path class="b" d="M157.536,155.444h-7.613c-1.561-4.463-6.675-7.759-12.811-7.759s-11.249,3.3-12.811,7.759h-7.279V320.175h7.652c1.919,3.973,6.745,6.808,12.438,6.808s10.519-2.835,12.438-6.808h7.986Z" transform="translate(-117.023 -147.685)"/><path class="c" d="M157.536,155.444h-7.613c-1.561-4.463-6.675-7.759-12.811-7.759s-11.249,3.3-12.811,7.759h-7.279V320.175h7.652c1.919,3.973,6.745,6.808,12.438,6.808s10.519-2.835,12.438-6.808h7.986Z" transform="translate(-117.023 -147.685)"/><g transform="translate(11.611 31.088)"><path class="d" d="M142.132,172.607v15.559h-4.4V182.1h-6v6.067h-4.4V172.607h4.4v5.845h6v-5.845Z" transform="translate(-126.084 -172.607)"/><path class="d" d="M130.543,207.629a7.955,7.955,0,0,1,0-14.092,9.937,9.937,0,0,1,8.868,0,7.956,7.956,0,0,1,0,14.092,9.937,9.937,0,0,1-8.868,0Zm6.568-3.156a4,4,0,0,0,1.512-1.568,5.137,5.137,0,0,0,0-4.645,4,4,0,0,0-1.512-1.567,4.37,4.37,0,0,0-4.267,0,4,4,0,0,0-1.512,1.567,5.137,5.137,0,0,0,0,4.645,4,4,0,0,0,1.512,1.568,4.378,4.378,0,0,0,4.267,0Z" transform="translate(-126.331 -167.687)"/><path class="d" d="M132.455,216.366h-4.779v-3.49h13.937v3.49h-4.758v12.069h-4.4Z" transform="translate(-125.998 -162.644)"/><path class="d" d="M141.015,245.17v3.4H128.523V233.012h12.2v3.4h-7.846v2.623h6.913v3.289h-6.913v2.845Z" transform="translate(-125.789 -157.662)"/><path class="d" d="M129.075,253.147h4.4v12.069H140.9V268.7H129.075Z" transform="translate(-125.652 -152.681)"/></g></g></svg>