<svg xmlns="http://www.w3.org/2000/svg" xmlns:xlink="http://www.w3.org/1999/xlink" width="225.142" height="204.672" viewBox="0 0 225.142 204.672"><defs><style>.a{fill:#b0c9da;}.b{fill:#ccc;}.c{fill:#f2f2f2;}.d{fill:#b3b3b3;}.e{fill:url(#a);}.f{fill:#d5e3ef;}.g{fill:#37bffd;}.h{fill:#999;}.i{fill:#e6e6e6;}.j{fill:gray;}.k{fill:#ffcb5b;}</style><linearGradient id="a" y1="0.5" x2="1" y2="0.5" gradientUnits="objectBoundingBox"><stop offset="0.386" stop-color="#7047ff"/><stop offset="1" stop-color="#2e76ea"/></linearGradient></defs><g transform="translate(0 0)"><path class="a" d="M537.356,383.722H332.684a10.266,10.266,0,0,1-10.235-10.235V260.916a10.266,10.266,0,0,1,10.235-10.235H537.356a10.266,10.266,0,0,1,10.235,10.235V373.487a10.266,10.266,0,0,1-10.235,10.235Zm0,0" transform="translate(-322.449 -250.681)"/><path class="b" d="M424.2,268.076a34.24,34.24,0,0,0-28.656,14.836c-5.12-2.557-10.744-4.6-17.4-4.6a35.8,35.8,0,0,0-35.307,30.7H449.782a10.412,10.412,0,0,0,10.235-8.7c-2.049-17.908-17.4-32.236-35.815-32.236Zm0,0" transform="translate(-234.875 -175.97)"/><path class="c" d="M508.589,365.185H344.847a20.523,20.523,0,0,0-20.465-20.465V273.084a20.525,20.525,0,0,0,20.465-20.471H508.589a20.525,20.525,0,0,0,20.465,20.471V344.72a20.524,20.524,0,0,0-20.465,20.465Zm0,0" transform="translate(-314.147 -242.379)"/><path class="d" d="M421.71,268.076a34.24,34.24,0,0,0-28.656,14.836c-5.12-2.557-10.743-4.6-17.4-4.6a35.148,35.148,0,0,0-32.236,20.465h83.406c0-11.257,8.694-19.957,19.952-20.465a36.964,36.964,0,0,0-25.067-10.235Zm0,0" transform="translate(-232.383 -175.97)"/><path class="e" d="M417.849,300.6c0,25.432-18.326,46.05-40.935,46.05s-40.935-20.619-40.935-46.05,18.326-46.05,40.935-46.05,40.935,20.619,40.935,46.05Zm0,0" transform="translate(-264.342 -234.077)"/><path class="f" d="M350.65,271.542a10.235,10.235,0,1,1-10.235-10.23,10.239,10.239,0,0,1,10.235,10.23Zm0,0" transform="translate(-289.245 -205.021)"/><path class="f" d="M373.838,271.542a10.233,10.233,0,1,1-10.235-10.23,10.236,10.236,0,0,1,10.235,10.23Zm0,0" transform="translate(-189.631 -205.021)"/><path class="g" d="M365.428,283.031H355.2a5.118,5.118,0,1,1,0-10.235h15.35a5.115,5.115,0,1,0,0-10.23h-5.12a5.115,5.115,0,1,0-10.23,0,15.347,15.347,0,1,0,0,30.695h10.23a5.118,5.118,0,1,1,0,10.235H350.083a5.118,5.118,0,1,0,0,10.235H355.2a5.115,5.115,0,1,0,10.23,0,15.35,15.35,0,1,0,0-30.7Zm0,0" transform="translate(-247.742 -221.625)"/><path class="h" d="M412.446,305.824a35.818,35.818,0,1,1-35.82-35.815,35.822,35.822,0,0,1,35.82,35.815Zm0,0" transform="translate(-243.589 -167.668)"/><path class="b" d="M421.143,303.891a35.818,35.818,0,1,1-35.815-35.815,35.818,35.818,0,0,1,35.815,35.815Zm0,0" transform="translate(-206.236 -175.97)"/><path class="f" d="M385.327,268.076a35.818,35.818,0,1,0,35.815,35.815,35.6,35.6,0,0,0-35.815-35.815Zm0,61.4a25.583,25.583,0,1,1,25.58-25.585,25.336,25.336,0,0,1-25.58,25.585Zm0,0" transform="translate(-206.236 -175.97)"/><path class="d" d="M356.272,310.147c19.957.514,35.815-15.864,35.815-35.307h-.514a5.444,5.444,0,0,0-5.115,4.607,30.942,30.942,0,0,1-9.722,18.421,28.977,28.977,0,0,1-15.864,7.673,4.585,4.585,0,0,0-4.6,4.607Zm0,0" transform="translate(-177.18 -146.919)"/><path class="d" d="M385.327,268.183c-19.957-.514-35.82,15.858-35.82,35.3h.514a5.434,5.434,0,0,0,5.115-4.6,30.956,30.956,0,0,1,9.721-18.421,28.983,28.983,0,0,1,15.864-7.678,4.585,4.585,0,0,0,4.607-4.6Zm0,0" transform="translate(-206.236 -175.563)"/><path class="h" d="M355.019,299.174A25.336,25.336,0,0,1,380.6,273.588a24.148,24.148,0,0,1,16.377,6.142c-5.12-6.142-11.771-9.721-19.957-9.721a25.335,25.335,0,0,0-25.585,25.58,24.524,24.524,0,0,0,9.208,19.443,24,24,0,0,1-5.629-15.858Zm0,0" transform="translate(-197.934 -167.668)"/><path class="i" d="M361.041,292.778a1.871,1.871,0,0,1-1.535-.514,2.464,2.464,0,0,1,0-3.58,17.072,17.072,0,0,0,4.607-11.771,2.557,2.557,0,0,1,5.115,0,23.637,23.637,0,0,1-5.629,15.35,5.546,5.546,0,0,1-2.557.514Zm0,0" transform="translate(-166.6 -148.993)"/><path class="d" d="M360.425,302.641a4.834,4.834,0,0,1-5.12-5.115V277.061a5.118,5.118,0,1,1,10.235,0v20.465a4.833,4.833,0,0,1-5.115,5.115Zm0,0" transform="translate(-181.333 -159.37)"/><path class="h" d="M403.84,325.781a41.561,41.561,0,0,0-24.558-27.629c-2.049-11.771-9.722-22.006-19.448-28.143a37,37,0,0,0-10.23,25.072A35.6,35.6,0,0,0,385.419,330.9c6.656.514,12.793-1.536,18.421-5.115Zm0,0" transform="translate(-205.819 -167.668)"/><path class="j" d="M360.648,309.638c-3.579-4.6-6.137-10.23-6.137-16.372a24.76,24.76,0,0,1,8.186-18.421,22.156,22.156,0,0,0-3.071-3.579A25.077,25.077,0,0,0,351.44,290.2a24.521,24.521,0,0,0,9.208,19.438Zm0,0" transform="translate(-197.934 -162.273)"/><path class="j" d="M355.3,275.42v7.164a5.118,5.118,0,0,0,10.235,0v-1.022A41.685,41.685,0,0,0,355.3,275.42Zm0,0" transform="translate(-181.333 -144.428)"/><path class="d" d="M404.257,325.369a32.637,32.637,0,0,0-4.093-9.722,24.746,24.746,0,0,1-14.837,5.115,25.336,25.336,0,0,1-25.585-25.585,25.065,25.065,0,0,1,8.186-18.929,31.214,31.214,0,0,0-8.186-6.142,36.976,36.976,0,0,0-10.235,25.072A35.6,35.6,0,0,0,385.327,331a34.322,34.322,0,0,0,18.93-5.629Zm0,0" transform="translate(-206.236 -167.255)"/><path class="i" d="M373.67,279.672c-3.579,2.557-8.186,4.093-12.793,5.115a5.449,5.449,0,0,0-4.607,5.12,34.326,34.326,0,0,0,18.935-5.629q-.762-2.3-1.536-4.607Zm0,0" transform="translate(-177.185 -126.166)"/><path class="d" d="M359.742,270.105a36.986,36.986,0,0,0-10.235,25.072h.514a5.434,5.434,0,0,0,5.115-4.6,31.842,31.842,0,0,1,9.213-17.908,20.689,20.689,0,0,1-4.606-2.563Zm0,0" transform="translate(-206.236 -167.255)"/><path class="b" d="M412.446,305.824a35.818,35.818,0,1,1-35.82-35.815,35.822,35.822,0,0,1,35.82,35.815Zm0,0" transform="translate(-243.589 -167.668)"/><path class="h" d="M346.608,310.661a35.539,35.539,0,0,0,1.536,10.235h3.579a35.7,35.7,0,0,0,34.285-46.056h-3.58a35.6,35.6,0,0,0-35.82,35.821Zm0,0" transform="translate(-218.687 -146.919)"/><path class="f" d="M376.625,270.009a35.818,35.818,0,1,0,35.82,35.815,35.6,35.6,0,0,0-35.82-35.815Zm0,61.4a25.585,25.585,0,1,1,25.585-25.585,25.332,25.332,0,0,1-25.585,25.585Zm0,0" transform="translate(-243.589 -167.668)"/><path class="d" d="M347.574,312.08c19.956.514,35.82-15.864,35.82-35.307h-.513a5.444,5.444,0,0,0-5.115,4.607,30.942,30.942,0,0,1-9.721,18.421,28.981,28.981,0,0,1-15.864,7.673,4.59,4.59,0,0,0-4.607,4.607Zm0,0" transform="translate(-214.538 -138.617)"/><path class="d" d="M376.625,270.114c-19.952-.508-35.815,15.864-35.815,35.307h.514a5.444,5.444,0,0,0,5.115-4.607A30.93,30.93,0,0,1,356.16,282.4a28.949,28.949,0,0,1,15.864-7.678,4.582,4.582,0,0,0,4.6-4.606Zm0,0" transform="translate(-243.589 -167.265)"/><path class="d" d="M346.322,301.111a25.336,25.336,0,0,1,25.585-25.585,24.154,24.154,0,0,1,16.372,6.137c-5.115-6.137-11.765-9.722-19.957-9.722a25.332,25.332,0,0,0-25.58,25.585,24.524,24.524,0,0,0,9.208,19.443,24,24,0,0,1-5.628-15.858Zm0,0" transform="translate(-235.287 -159.37)"/><path class="k" d="M352.345,294.711a1.871,1.871,0,0,1-1.536-.514,2.464,2.464,0,0,1,0-3.579,17.08,17.08,0,0,0,4.607-11.771,2.558,2.558,0,0,1,5.115,0A23.637,23.637,0,0,1,354.9,294.2a5.545,5.545,0,0,1-2.557.514Zm0,0" transform="translate(-203.953 -140.691)"/><path class="d" d="M351.723,304.574a4.83,4.83,0,0,1-5.115-5.115V278.994a5.118,5.118,0,1,1,10.235,0v20.465a4.834,4.834,0,0,1-5.12,5.115Zm0,0" transform="translate(-218.687 -151.068)"/><path class="d" d="M375.264,275.354a29.939,29.939,0,0,1,2.044,9.722,25.336,25.336,0,0,1-25.585,25.585,17.33,17.33,0,0,1-5.115-.514v.514a35.539,35.539,0,0,0,1.536,10.235h3.579a35.7,35.7,0,0,0,34.285-46.056h-3.58a33.631,33.631,0,0,0-7.164.514Zm0,0" transform="translate(-218.687 -146.919)"/><path class="b" d="M417.278,311.622a35.818,35.818,0,1,1-35.82-35.815,35.817,35.817,0,0,1,35.82,35.815Zm0,0" transform="translate(-222.836 -142.766)"/><path class="f" d="M381.457,275.807a35.815,35.815,0,1,0,35.82,35.815,35.595,35.595,0,0,0-35.82-35.815Zm0,61.4a25.585,25.585,0,1,1,25.585-25.585,25.336,25.336,0,0,1-25.585,25.585Zm0,0" transform="translate(-222.836 -142.766)"/><path class="d" d="M352.406,317.878c19.957.508,35.82-15.864,35.82-35.307h-.513a5.444,5.444,0,0,0-5.115,4.607,30.941,30.941,0,0,1-9.722,18.421,28.978,28.978,0,0,1-15.864,7.672,4.59,4.59,0,0,0-4.607,4.607Zm0,0" transform="translate(-193.784 -113.714)"/><path class="d" d="M381.457,275.912c-19.951-.508-35.815,15.864-35.815,35.307h.508a5.44,5.44,0,0,0,5.12-4.6,30.914,30.914,0,0,1,9.722-18.427,29.016,29.016,0,0,1,15.859-7.672,4.586,4.586,0,0,0,4.607-4.607Zm0,0" transform="translate(-222.836 -142.362)"/><path class="d" d="M351.159,306.909a25.336,25.336,0,0,1,25.585-25.585,24.118,24.118,0,0,1,16.372,6.142c-5.115-6.142-11.771-9.727-19.957-9.727a25.339,25.339,0,0,0-25.585,25.585,24.536,24.536,0,0,0,9.213,19.443,24.005,24.005,0,0,1-5.629-15.859Zm0,0" transform="translate(-214.538 -134.468)"/><path class="i" d="M357.172,300.509a1.881,1.881,0,0,1-1.535-.514,2.472,2.472,0,0,1,0-3.579,17.081,17.081,0,0,0,4.607-11.771,2.557,2.557,0,1,1,5.115,0A23.609,23.609,0,0,1,359.73,300a5.535,5.535,0,0,1-2.558.514Zm0,0" transform="translate(-183.201 -115.789)"/><path class="d" d="M356.555,310.372a4.83,4.83,0,0,1-5.115-5.115v-20.47a5.117,5.117,0,0,1,10.235,0v20.47a4.834,4.834,0,0,1-5.12,5.115Zm0,0" transform="translate(-197.934 -126.166)"/></g></svg>