<svg xmlns="http://www.w3.org/2000/svg" width="72.18" height="133.751" viewBox="0 0 72.18 133.751"><defs><style>.a{fill:#c3ecfe;}.b{fill:none;stroke:#ccf3ff;stroke-miterlimit:10;stroke-width:1.393px;}</style></defs><rect class="a" width="24.768" height="134.003" transform="translate(49.137 0) rotate(21.511)"/><g transform="translate(17.046 10.143)"><line class="b" x2="7.595" y2="2.993" transform="translate(45.942)"/><line class="b" x2="7.595" y2="2.993" transform="translate(43.39 6.476)"/><line class="b" x2="7.594" y2="2.994" transform="translate(40.837 12.951)"/><line class="b" x2="11.31" y2="4.458" transform="translate(34.57 17.962)"/><line class="b" x2="7.595" y2="2.993" transform="translate(35.733 25.902)"/><line class="b" x2="7.595" y2="2.993" transform="translate(33.181 32.378)"/><line class="b" x2="7.595" y2="2.993" transform="translate(30.628 38.854)"/><line class="b" x2="11.31" y2="4.458" transform="translate(24.361 43.865)"/><line class="b" x2="7.595" y2="2.994" transform="translate(25.523 51.804)"/><line class="b" x2="7.595" y2="2.993" transform="translate(22.971 58.28)"/><line class="b" x2="7.594" y2="2.993" transform="translate(20.419 64.756)"/><line class="b" x2="11.31" y2="4.458" transform="translate(14.151 69.767)"/><line class="b" x2="7.594" y2="2.993" transform="translate(15.314 77.707)"/><line class="b" x2="7.595" y2="2.993" transform="translate(12.762 84.182)"/><line class="b" x2="7.595" y2="2.993" transform="translate(10.21 90.658)"/><line class="b" x2="11.31" y2="4.458" transform="translate(3.942 95.669)"/><line class="b" x2="7.595" y2="2.993" transform="translate(5.105 103.609)"/><line class="b" x2="7.595" y2="2.993" transform="translate(2.552 110.085)"/><line class="b" x2="7.595" y2="2.993" transform="translate(0 116.56)"/></g></svg>