<svg xmlns="http://www.w3.org/2000/svg" width="138.879" height="23.672" viewBox="0 0 138.879 23.672"><defs><style>.a{fill:#fff;fill-rule:evenodd;}</style></defs><g transform="translate(-239.849 6)"><path class="a" d="M87.832,23.11V12.582h3.595l.514-4.108H87.832V5.906c0-1.155.385-2.054,2.054-2.054h2.183V.128c-.514,0-1.8-.128-3.21-.128-3.081,0-5.264,1.926-5.264,5.392V8.473H80v4.108h3.595V23.11Z" transform="translate(159.849 -6)"/><path class="a" d="M46.3,23.271a15.162,15.162,0,0,0,15.3-15.3V7.245a11.842,11.842,0,0,0,2.622-2.768,12.094,12.094,0,0,1-3.06.874A5.668,5.668,0,0,0,63.5,2.437a13.364,13.364,0,0,1-3.351,1.311A5.2,5.2,0,0,0,56.212,2a5.474,5.474,0,0,0-5.391,5.391,2.841,2.841,0,0,0,.146,1.166A15.063,15.063,0,0,1,39.894,2.874a5.58,5.58,0,0,0-.728,2.768A5.789,5.789,0,0,0,41.5,10.159,4.912,4.912,0,0,1,39.02,9.43h0a5.325,5.325,0,0,0,4.371,5.245,4.492,4.492,0,0,1-1.457.146,2.479,2.479,0,0,1-1.02-.146,5.52,5.52,0,0,0,5.1,3.788,11,11,0,0,1-6.7,2.331A4.034,4.034,0,0,1,38,20.649a13.752,13.752,0,0,0,8.3,2.623" transform="translate(314.502 -6.162)"/><path class="a" d="M11.555,2.054a35.429,35.429,0,0,1,4.622.128,5.955,5.955,0,0,1,2.183.385A4.509,4.509,0,0,1,20.542,4.75a5.955,5.955,0,0,1,.385,2.183c0,1.155.128,1.541.128,4.622a35.43,35.43,0,0,1-.128,4.622,5.955,5.955,0,0,1-.385,2.183,4.509,4.509,0,0,1-2.183,2.183,5.955,5.955,0,0,1-2.183.385c-1.155,0-1.541.128-4.622.128a35.43,35.43,0,0,1-4.622-.128,5.955,5.955,0,0,1-2.183-.385,4.509,4.509,0,0,1-2.183-2.183,5.955,5.955,0,0,1-.385-2.183c0-1.155-.128-1.541-.128-4.622a35.429,35.429,0,0,1,.128-4.622A5.955,5.955,0,0,1,2.568,4.75a4.611,4.611,0,0,1,.9-1.284,2.171,2.171,0,0,1,1.284-.9,5.955,5.955,0,0,1,2.183-.385,35.429,35.429,0,0,1,4.622-.128m0-2.054A37.935,37.935,0,0,0,6.8.128,7.926,7.926,0,0,0,3.98.642,5.026,5.026,0,0,0,1.926,1.926,5.026,5.026,0,0,0,.642,3.98,5.85,5.85,0,0,0,.128,6.8,37.935,37.935,0,0,0,0,11.555a37.935,37.935,0,0,0,.128,4.75A7.926,7.926,0,0,0,.642,19.13a5.026,5.026,0,0,0,1.284,2.054A5.026,5.026,0,0,0,3.98,22.468a7.926,7.926,0,0,0,2.824.514,37.934,37.934,0,0,0,4.75.128,37.934,37.934,0,0,0,4.75-.128,7.926,7.926,0,0,0,2.824-.514,5.386,5.386,0,0,0,3.338-3.338,7.926,7.926,0,0,0,.514-2.824c0-1.284.128-1.669.128-4.75a37.934,37.934,0,0,0-.128-4.75,7.926,7.926,0,0,0-.514-2.824,5.026,5.026,0,0,0-1.284-2.054A5.026,5.026,0,0,0,19.13.642,7.926,7.926,0,0,0,16.305.128,37.935,37.935,0,0,0,11.555,0m0,5.649a5.811,5.811,0,0,0-5.906,5.906,5.906,5.906,0,1,0,5.906-5.906m0,9.757A3.783,3.783,0,0,1,7.7,11.555,3.783,3.783,0,0,1,11.555,7.7a3.783,3.783,0,0,1,3.852,3.852,3.783,3.783,0,0,1-3.852,3.852M17.717,3.98A1.412,1.412,0,1,0,19.13,5.392,1.425,1.425,0,0,0,17.717,3.98" transform="translate(292.815 -5.437)"/></g></svg>